<?xml version="1.0" encoding="UTF-8"?>
<!DOCTYPE svg PUBLIC "-//W3C//DTD SVG 1.1//EN" "http://www.w3.org/Graphics/SVG/1.1/DTD/svg11.dtd">
<!-- Creator: CorelDRAW X7 -->
<svg xmlns="http://www.w3.org/2000/svg" xml:space="preserve" width="545px" height="83px" version="1.1" style="shape-rendering:geometricPrecision; text-rendering:geometricPrecision; image-rendering:optimizeQuality; fill-rule:evenodd; clip-rule:evenodd"
viewBox="0 0 545 83"
 xmlns:xlink="http://www.w3.org/1999/xlink">
 <defs>
  <style type="text/css">
   <![CDATA[
    .fil0 {fill:#FBAF05}
    .fil1 {fill:#FF7E00}
    .fil2 {fill:#222222;fill-rule:nonzero}
    .fil3 {fill:#FF7E00;fill-rule:nonzero}
   ]]>
  </style>
 </defs>
 <g id="Layer_x0020_1">
  <metadata id="CorelCorpID_0Corel-Layer"/>
  <g id="_2559945845648">
   <g>
    <path class="fil0" d="M69 38l0 0 0 0 0 0 0 0 0 0 0 0 0 0 0 0 0 0 0 0 0 0 0 0 1 0 0 0 0 0 0 0 0 -1 0 0 0 0 0 0 0 0 0 0 0 0 0 0 0 0 0 0 0 0 0 0 0 0 0 0 1 0 0 0 0 0 0 0 0 0 0 0 0 0 0 0 0 0 0 0 0 0 0 0 0 0 0 0 0 0 0 0 0 0 0 0 0 0 0 0 1 0 0 0 0 0 0 0 0 0 0 0 0 0 0 0 0 0 0 0 0 0 0 0 0 0 0 0 0 0 0 0 0 0 0 0 0 0 0 0 0 0 0 0 0 -1 0 0 1 0 0 0 0 0 0 0 0 0 0 0 0 0 0 0 0 0 0 0 0 0 0 0 0 0 0 0 0 0 0 0 0 0 0 0 0 0 0 0 0 0 0 0 0 0 0 0 0 0 0 0 0 0 0 0 0 0 0 0 0 0 0 0 0 0 0 0 1 0 0 0 0 0 0 0 0 0 0 0 0 0 0 0 0 0 0 0 0 0 0 0 0 0 0 0 0 0 0 0 0 0 0 0 0 0 0 0 0 0 0 0 0 0 0 0 0 0 0 0 0 -1 0 0 0 0 0 0 0 0 0 0 0 0 0 0 0 0 0 0 0 0 0 0 0 0 0 0 0 0 0 0 0 0 0 0 0 0 0 0 0 0 0 0 0 0 0 0 0 0 0 0c0,0 0,0 0,0l0 0c0,0 0,0 0,0l0 0c0,0 0,0 0,0l0 0c0,-1 0,-1 0,-1l0 0 0 0 0 0 0 0 0 0 0 0 0 0 0 0 0 0 0 0 0 0 0 0 0 0c0,0 0,0 0,0l0 0 0 0 0 0 0 0 0 0 0 0 0 0 0 0 0 0 0 0 0 0 0 -1 0 0 0 0 0 0 0 0 0 0 0 0 0 0 0 0 0 0 0 0 0 0 0 0 0 0 0 0 0 0 0 0 0 0 0 0 0 0 0 0 0 0 0 0 0 0 0 0 0 0 0 0 0 0 0 0 0 0 0 0 0 0 0 0 0 0 0 -1 0 0 0 0 0 0 0 0 0 0 0 0 0 0 0 0 0 0 0 0c0,0 0,0 0,0l0 0 0 0c0,0 -1,0 -1,0l0 0 0 0 0 0 0 0 0 0 0 0 0 0 0 0 0 0 0 -1 0 0 0 0 0 0 0 0 0 0 0 0 0 0c0,0 -1,0 -1,0 0,0 0,0 -1,0l0 0 0 0 0 0 0 0 0 0c-1,0 -1,0 -2,0l0 0 0 0 -1 0 0 0 0 0 0 0 0 0 0 0 0 0 0 0 0 0 0 0 0 0 0 0 0 0 0 0 0 0 0 0 0 0 0 0 0 0 -1 0 0 0 0 0 0 0 0 0 0 0 0 0 0 0 0 0 0 0 0 0 0 0 0 0 0 0 0 0 0 0 -1 0 0 0 0 0 0 0 0 0 0 0 0 0 0 0 -1 0 0 1 0 0 0 0 0 0 0 0 0 0 0 0 0 0 0 0 -1 0 0 0 0 0 0 0 0 0 0 0 0 0 0 0 0 0 0 0 0 0 0 0 -1 0 0 0 0 0 0 0 0 0 0 0 0 0 0 0 0 0 0 1 0 0 0 0 0 0 0 0 0 0 0 0 0 0 -1 0 0 0 0 0 0 0 0 0 0 0 0 0 0 0 0 0 0 0 0 0 0 0 0 0 0 0 0 0 0 0 0 0 0 0 0 0 0 0 0 0 0 0 0 0 -1 0 0 0 0 0 0 0 0 0 0 0 0 0 0 0 0 0 0 0 0 1 0 0 0 0 0 0 0 0 0 0 0 0 0 0 0 0 0 0 0 0 0 0 0 0 0 0 0 0 0 0 0 0 0 0 0 0 0 0 0 0 0 0 -1 0 0 0 0 0 0 0 0 0 0 0 0 0 0 0 0 0 0 0 0 0 0 0 0 0 0 0 0 0 0 0 0 1 0 0 0 0 0 0 0 0 0 0 0 0 0 0 0 0 0 0 0 0 0 0 0 0 0 0 0 0 0 0 0 0 -1 0 0 0 0 1 0 0 0 0 0 0 0 0 0 0 0 0 0 0 0 0 0 0 0 0 0 0 0 0 0 0 0 0 0 0 0 1 0 0 0 0 0 0 0 0 0 0 0 0 0 0 0 0 0 0 0 0 -1 1 0 0 0 0 0 0 0 0 0 0 0 0 0 1 0 0 0 0 0 0 0 0 0 0 0 0 0 1 0 0 0 0 0 0 0 0 0 0 -1 1 0 0 0 0 0 0 0 0 0 0 0 0 0 0 0 0 0 0 0 0 0 0 0 0 0 1 0 0 0 0 0 0 0 0 0 0 0 0 0 0 0 0 0 0 0 0 0 0 0 0 0 0 0 0 0 0 0 1 0 0 0 0 0 0 0 0 0 0 0 0 0 0 0 0 0 0 0 0 0 0 0 0 0 0 0 0 0 0 0 0 0 1 0 0 0 0 0 0 0 0 0 0 0 0 0 0 -6 1c-1,1 -1,1 -2,2 0,0 0,1 0,2l3 8 0 0 0 0 -1 0 0 0 0 0 0 0 0 0 0 0 0 0 0 1 0 0 0 0 0 0 0 0 0 0 0 0 0 0 0 0 0 0 0 0 0 0 0 0 0 0 0 0 0 1 0 0 0 0 0 0 0 0 0 0c-1,0 -1,1 -1,1 -1,0 -1,0 -1,-1l-10 -29 0 0 0 -1 0 0 0 0 1 0 0 0 0 0 0 0 0 0 0 0 0 0 0 0 0 0 0 -1 0 0 0 0 0 0 0 0 0 0 0 0 0 0 0 0 0 0 0 0 0 0 0 -1 0 0 0 0 0 0 0 0 0 0 0 0 0 0 0 0 0 0 0 0 1 0 0 0 0 0 0 -1 0 0 0 0 0 0 0 0 0 0 0 0 0 0 0 0 0 0 0 0 0 0 0 -1 0 0 0 0 0 0 0 0 0 0 0 0 0 0 0 0 0 0 0 0 0 0 0 0 0 0 0 0 0 0 0 -1 1 0 0 0 0 0 0 0 0 0 0 0 0 0 0 0 0 0 0 0 0 0 0 0 0 0 0 0 0 0 0 0 0 -1 0 0 0 0 0 0 0 0 0 0 0 0 0 0 0 0 1 0 0 0 0 -1 0 0 0 0 0 0 0 0 0 0 0 0 0 0 0 0 0 0 0 0 0 0 0 0 0 0 0 0 0 0 0 0 0 -1 0 0 1 0 0 0 0 0 0 0 0 0 0 0 0 0 0 0 0 0 0 0 0 0 0 0 0 0 0 0 0 0 0 0 0 0 0 0 0 0 0 0 0 0 0 0 0 0 0 0 0 0 0 0 0 -1 0 0 0 0 0 0 0 0 0 0 1 0 0 0 0 0 0 0 0 0 0 0 0 0 0 0 0 0 0 0 0 0 0 0 0 0 0 0 0 0 0 0 0 0 0 0 0 0 0 0 0 0 0 0 0 0 0 0 0 0 0 -1 0 0 1 0 0 0 0 0 0 0 0 0 0 0 0 0 0 0 0 0 0 0 0 0 0 0 0 0 0 0 0 0 0 0 0 0 0 0 0 0 0 0 0 0 0 0 0 0 0 0 0 0 1 0 0 0 0 0 0 0 0 0 0 -1 0 0 0 0 0 0 0 0 0 0 0 0 0 0c3,-2 6,-3 11,-4l0 0 0 0 0 -1 0 0 0 0 0 0 0 0 0 0 0 0 0 0 0 0 0 0 1 0 0 0 0 0 0 0 0 0 0 0 0 0 0 0 0 0 0 0 0 0 0 0 0 0 0 0 0 0 0 0 1 0 0 0 0 0 0 0 0 0 0 0 0 0 0 0 0 0 0 0 0 0 0 0 0 0 0 0 0 0 0 0 1 0 0 0 0 0 0 0 0 0 0 0 0 0 0 0 0 0 0 0 0 0 0 0 0 0 0 0 0 0 0 0 0 0 1 0 0 0 0 0 0 0 0 0 0 0 0 0 0 0 0 0 0 -1 0 0 0 0 0 0 0 0 0 0 0 0 1 0 0 0 0 0 0 0 0 0 0 0 0 0 0 0 0 0 1 0 0 0 0 0 0 0 0 0 0 0 1 0 0 0 0 0 0 0 0 0 0 0 1 0 0 0 0 0 0 0 0 0 0 0 1 0 0 0 0 0 0 0 0 0 0 0 0 0 0 0 0 0 1 0 0 0 0 0 0 0 0 0 0 0 0 0 0 0 1 0 0 0 0 0 0 0 0 0 0 0 0 0 0 0 1 0 0 0 0 0 0 0 0 0 0 0 0 0 0 0 0 0 1 0 0 0 0 0 0 0 0 0 0 0 0 0 1 0 0 0 0 0 0 0 0 0 0 0 0 0 1 0 0 0 0 0 0 0 0 0 0 0 1 0 0 0 0 0 0 0 0 0 0 0 0 1 1 0 0 0 0 0 0 0 0 0 0 0 0 0 1 0 0 0 0 0 0 0 0 0 0 0 0 0 0 0 1 0 0 0 0 0 0 1 0 0 0 0 0 0 0 0 0 0 0 0 0 0 1 0 0 0 0 0 0 0 0 0 0 0 0 0 0 0 0 0 0 0 0 0 1 1 0 0 0 0 0 0 0 0 0 0 0 0 0 0 0 0 0 0 0 0 0 0 1 0 0 0 0 0 0 0 0 1 0 0 0 0 0 0 0 0 0 0 0 0 0 0 0 0 0 0 1 0 0 0 0 0 0 0 0 0 0 0 0 0 0 0 0 1 0 0 0 0 0 0 0 0 0 0 0 0 1 0 0 0 0 0 0 0 0 0 0 0 0 1 0 0 0 0 0 0 0 0 0 0 0 0 0 0 0 0 1 0 0 0 0 0 0 0 0 0 0 1 0 0 0 0 0 0 0 0 1 0 0 1 0 0 0 0 0 0 0 0 0 0 0 0 0 0 0 0 0 0 0 1 0 0 1 0 0 0 0 0 0 0 0 0 0 0 0 1 0 0 0 0 0 0 0 0 0 0 0 0 0 0 1 1 0 0 0 0 0 0 0 0 0 0 0 0 0 0 0 0 0 1 0 0 0 0 0 0 0 0 0 0 0 0 1 0 0 1 0 0 0 0 0 0 0 0 0 0 0 0 0 0 0 0 0 1 0 0 0 0 0 0 0 0 0 0 0 0 0 0 0 1 0 0 1 0 0 0 0 0 0 0 0 0 0 0 0 1 0 0 0 0 0 0 0 0 0 0 0 0 0 1 0 0 0 0 0 0 0 0 0 0 0 0 0 0 1 1 0 0 0 0 0 0 0 0 0 0 0 0 0 0 0 1 0 0 0 0 0 0 0 0 0 0 0 0 0 1 0 0 0 0 0 0 0 0 0 0 0 0 0 1 0 0 0 0 0 0 0 0 0 0 0 1 1 0 0 0 0 0 0 0 0 0 0 1 0 0 0 0 0 0 0 1 0 0 0 0 0 0 0 0 0 0 0 1 0 0 0 0 0 0 0 0 0 0 0 0 0 0 0 0 0 1 0 0 0 0 0 1 0 0 0 0 0 0 0 0 0 0 0 0 0 0 0 0 0 1 0 0 0 0 0 0 0 0 0 0 0 1 0 0 0 0 0 0 0 0 0 1 0 0 0 0 0 0 0 0 0 0 0 0 0 1 0 0 0 0 0 0 0 0 0 1 -1 0 0 0 0 0 0 0 0 0 0 0 0 1 0 0 0 0 0 0 0 0 0 0 0 0 0 1 0 0 0 0 0 0 0 0 0 0 0 0 0 1 0 0 0 0 -1 0 0 0 0 0 0 0 0 0 0 0 0 0 0 1 0 0 0 0 0 0 0 0 0 0 0 0 0 0 0 0 0 0 0 0 0 0 0 1 0 0 0 0 0 0 -1 0 0 0 0 0 0 0 0 0 0 0 0 0 0 0 0 0 0 0 0 0 0 0 0 1 0 0 0 0 0 0 0 0 0 0 0 0 0 0 0 0 0 0 -1 0 0 0 0 0 0 0 0 0 0 0 0 0 0 1 0 0 0 0 0 0 0 0 0 0 0 0 0 0 0 0 0 0 0 0 0 0 -1 0 0 0 0 0 0 0 0 0 0 0 0 0 0 0 0 0 0 0 0 1 0 0 0 0 0 0 0 0 0 0 -1 0 0 0 0 0 0 0 0 0 0 0 0 0 0 0 0 0 0 0 0 0 0 0 0 0 0 0 0 0 0 0 -1 1 0 0 0 0 0 0 0 0 0 0 0 0 0 0 0 0 0 0 0 0 0 0 -1 0 0 0 0 0 0 0 0 0 0 0 0 0 0 0 0 0 0 0 -1 1 0 0 0 0 0 0 0 0 0 0 0 0 0 0 0 0 0 0 -1 0 0 0 0 0 0 0 0 0 0 0 0 0 0 0 0 0 -1 0 0 0 0 1 0 0 0 0 0 0 0 0 0 0 -1 0 0 0 0 0 0 0 0 0 0 0 0 0 0 0 0 0 -1 0 0 0 0 0 0 0 0 0 0 0 0 0 0 0 0 0 0 0 0 0 0 0 0 0 -1 0 0 1 0 0 0 0 0 0 0 0 0 0 0 0 0 0 0 0 0 0 0 0 0 0 0 0 0 0 0 0 0 0 -1 0 0 0 0 0 0 0 0 0 0 0 0 0 0 0 0 0 0 0 0 0 0 0 0 0 0 0 0 0 -1 0 0 0 0 0 0 0 0 0 0 0 0 0 0 0 0 0 0 0 0 0 0 0 0 0 0 0 0 0 -1 0 0 0 0 0 0 0 0 0 0 1 0 0 0 0 0 0 0 0 0 0 0 0 0 0 0 0 0 0 -1 0 0 0 0 0 0 0 0 0 0 0 0 0 0 0 0 0 0 0 0 0 -4 1 -4 -14 -2 -4 7 -2 0 0zm-44 33c-1,0 -2,0 -3,0l0 0 0 0 -1 0 0 0 0 0 0 0 0 0 0 0 0 0 0 0 0 0 0 0 0 0 0 0 -1 0 0 0 0 0 0 0 0 0 0 0 0 0 0 0 0 0 0 0 0 0 0 0 0 0 0 0 -1 0 0 0 0 0 0 0 0 0 0 0 0 0 0 0 0 0 0 0 0 0 0 0 0 0 0 0 0 0 0 0 0 0 -1 0 0 0 0 0 0 0 0 0 0 0 0 0 0 0 0 0 -1 0 0 0 0 0 0 0 0 0 0 0 0 0 0 0 -1 0 0 0 0 0 0 0 0 0 0 0 0 -1 0 0 0 0 0 0 -1 0 0 0 0 0 0 0 0 0 0 0 0 0 0 0 0 0 0 0 -1 0 0 0 0 0 0 0 0 0 0 0 0 0 0 0 0 0 0 0 0 0 0 0 -1 -1 0 0 0 0 0 0 0 0 0 0 0 0 0 0 0 0 0 0 0 0 0 0 0 0 0 0 -1 0 0 0 0 0 0 0 0 0 0 0 0 0 0 0 0 -1 0 0 0 0 0 0 0 0 -1 0 0 0 0 0 0 0 0 0 0 0 0 0 0 0 -1 -1 0 0 0 0 0 0 0 0 0 0 0 0 0 0 0 0 0 0 -1 -1 0 0 0 0 0 0 0 0 0 0 0 0 0 0 -1 -1c0,0 0,0 0,0l0 0 0 0 0 0 0 0 -1 -1 0 0 0 0 0 0 0 0 0 0 0 0 0 0 0 0 0 -1 0 0 -1 0 0 0 0 0 0 0 0 0 0 0 0 -1 0 0 0 0 0 0 0 0 0 0 0 0 -1 0 0 0 0 0 0 -1 0 0 0 0 0 0 0 0 0 0 0 0 0 0 0 0 0 0 0 -1 0 0 -1 0 0 0 0 0 0 -1 0 0 0 0 0 0 0 0 0 0 0 0 0 0 0 0 0 0 -1 -1 0 0 0 0 0 0 0 0 0 0 0 0 0 0 0 0 0 -1 0 0 0 0 0 0 0 0 0 0 0 0 0 -1 -1 0 0 0 0 0 0 0 0 -1 0 0 0 0 0 0 0 0 0 0 0 -1 0 0 0 0 0 0 0 -1 -1 0 0 0 0 0 0 0 0 0 0 -1 0 0 0 0 0 0 0 0 0 0 0 0 0 -1 0 0 0 0 0 0 0 0 0 -1 0 0 0 0 0 0 0 0 0 0c-1,-1 -1,-1 -1,-1l0 0 0 -1 0 0 0 0c0,0 0,0 0,0l0 0 0 -1 0 0 0 0 0 0 0 0 0 0 0 -1c0,0 0,0 0,0l0 0 0 0 0 0 0 0c0,-1 0,-1 0,-1l0 0 0 0 0 -1 0 0c0,0 0,0 0,0l0 0 0 0 0 0 0 -1 0 0 0 0 0 0 0 0 0 0 0 0 0 -1 0 0 0 0 0 0 0 0 0 0 0 0 0 0 0 0 0 -1 0 0 0 0 0 0 0 0 0 0 0 0 0 0 0 -1 0 0 0 0 0 0 0 0 0 0 0 0 0 0 1 0 0 0 0 -1 0 0 0 0 0 0 0 0 0 0 0 0 0 0 0 0 0 -1 0 0 0 0 0 0 0 0 0 0 0 0 0 0 0 -1 0 0 0 0 0 0 0 0 0 0 0 0 0 0 1 -1 0 0 0 0 0 0 0 0 0 0 0 0 0 0 0 0 0 0 0 -1 0 0 0 0 0 0 0 0 0 0 0 0 0 0 0 0 0 0 0 -1 0 0 1 0 0 0 0 0 0 0 0 0 0 0 0 0c0,0 0,0 0,-1l0 0 0 0 0 0c0,0 0,0 0,0l0 0 1 0 0 0 0 0 0 0 0 0 0 0 0 -1 0 0 0 0 0 0c0,0 0,0 0,0l0 0 0 0c1,0 1,0 1,0l0 -1 0 0 0 0 0 0 0 0 0 0 0 0 1 0 0 0 0 0 0 -1 0 0 0 0 0 0 0 0 0 0 0 0 1 0 0 0 0 0 0 0 0 -1 0 0 1 0 0 0 0 0 0 0 0 0 0 0 1 0 0 0 0 0 0 0 0 0 0 0 0 -1 0 0 0 0 0 0 1 0 0 0 0 0 0 0 0 0 0 0 0 0 0 0 0 0 1 0 0 0 0 0 0 0 0 -1 0 0 1 0 0 0 0 0 0 0 0 0 1 0 0 0 0 0 0 0 0 0 0 0 0 0 0 0 0 0 0 0 0 0 0 0 0 0 0 0 1 -1 0 0 0 0 0 0 0 0 0 0 0 0 0 0 0 0 0 0 0 0 1 0 0 0 0 0 0 0 0 0 0 0 0 0 0 0 0 0 0 0 0 0 0 0 1 0 0 0 0 0 0 0 0 0 0 0 0 0 0 0 0 0 0 0 0 0 0 0 0 -1 1 0 0 0 0 0 0 0 0 0 0 0 0 0 0 0 0 0 0 0 0 0 0 0 1 0 0 0 0 0 0 0 0 0 0 0 0 0 0 0 0 0 0 0 0 0 1 0 0 0 0 0 0 0 0 0 0 0 0 0 0 0 0 0 0 0 0 0 1 0 0 0 0 -1 0 0 0 0 0 0 0 0 0 0 0 0 0 0 6 -1 6 18 0 0 -10 3 0 0 0 0 0 0 0 0 0 0 0 0 0 0 -1 0 0 0 0 0 0 0 0 0 0 0 0 0 0 0 0 0 0 0 0 0 0 0 0 0 0 0 0 0 0 0 0 0 0 0 0 0 0 0 0 0 -1 0 0 0 0 0 0 0 0 0 0 0 0 0 0 0 0 0 0 0 0 0 0 0 0 0 0 0 0 0 0 0 0 0 0 0 0 0 0 0 0 0 0 0 0 0 0 0 0 0 0 0 0 0 0 0 0 0 0 0 0 0 0 0 0 0 0 0 0 0 0 0 0 0 0 0 0 0 0 0 0 0 0 0 0 0 0 0 0 0 0 0 0 0 0 0 0 0 0 0 0 0 0 0 0 0 0 0 0 0 0 1 0 0 0 0 0 0 0 0 -1 0 0 0 0 0 0 0 0 0 0 0 0 0 0 0 0 0 0 0 0 0 0 0 0 0 0 0 0 0 0 0 0 0 0 0 0 0 0 0 0 0 0 0 -1 0 0 0 0 0 0 0 0 0 0 0 0 0 0 0 0 0 0 0 0 0 0 0 0 0 0 0 0 0 0 0 0 0 0 0 0 0 -1 0 0 0 0 0 0 0 0 0 0 1 0 0 0 0 0 0 0 0 0 0 0 0 0 0 0 0 0 0 0 0 0 0 -1 0 0 0 0 0 0 0 0 0 0 0 0 0 0 0 0 0 0 0 0 0 0 0 0 0 0 0 0 0 0 0 0 0 0 1 0 0 0 0 0 0 0 0 0 0 0 0 0 0 0 0 0 0 0 0 0 0 0 0 0 0 -1 0 0 0 0 0 0 0 0 0 0 0 0 0 0 0 0 0 0 1 0 0 0 0 0 0 0 0 0 0 0 0 0 0 0 0 0 0 0 0 0 0 0 0 0 0 0 0 0 0 0 0 0 0 0 0 0 0 0 0 0 0 0 0 0 0 0 1 0 0 0 0 0 0 0 0 0 0 0 0 0 0 0 0 0 0 0 0 0 0 0 0 1 0 0 0 0 0 0 0 0 0 0 0 0 0 0 0 0 0 0 0 0 0 0 0 0 1 0 0 0 0 0 0 0 0 0 0 0 0 0 0 0 0 0 0 0 0 0 0 0 0 0 0 0 0 0 0 0 0 0 0 0 0c0,1 1,1 2,2l0 0 0 0 0 0 0 0 3 8c1,4 2,7 4,11zm21 -52l0 0zm42 10l0 0 0 0z"/>
    <path class="fil1" d="M42 19c-1,-2 -2,-3 -2,-4 -1,0 -2,-1 -4,0 -1,0 -2,1 -3,2 0,2 1,4 2,8l12 35c1,4 2,6 3,7 1,1 2,1 4,1 1,0 2,-1 2,-3 0,-1 0,-3 -2,-8l-3 -9 11 -3 4 14c0,1 2,1 3,1 2,0 4,-1 6,-1 1,-1 2,-1 2,-1 1,1 1,3 1,4 0,4 -2,7 -5,11 -4,3 -9,6 -15,8 -6,2 -12,2 -16,1 -5,-1 -9,-3 -12,-7 -2,-3 -5,-8 -7,-16l-4 -12c0,0 0,0 0,0 1,0 1,0 1,0 1,0 1,-1 2,-1 4,-1 7,-2 11,-3 0,0 1,0 1,-1 0,0 0,-1 0,-2l-6 -18c0,-1 -2,-2 -3,-2l-5 2c-1,0 -1,0 -2,0 -1,1 -3,1 -5,2 0,0 0,0 -1,0l0 0c0,-2 0,-5 1,-8 1,-3 4,-6 7,-8 3,-3 7,-5 12,-6 6,-2 12,-2 16,-1 5,1 9,3 11,6 1,1 2,2 2,3 0,0 0,0 -1,0 -1,1 -2,1 -3,1 -4,1 -8,3 -11,5l0 0c-1,1 -2,1 -2,2 -1,0 -2,1 -2,1z"/>
   </g>
   <path class="fil2" d="M96 65l17 -53 13 0 17 53 -9 0 -15 -48 2 0 -15 48 -10 0zm10 -11l0 -9 28 0 0 9 -28 0zm60 12c-4,0 -7,-1 -10,-3 -3,-1 -5,-4 -6,-7 -2,-3 -2,-7 -2,-11 0,-4 0,-8 2,-11 1,-3 4,-6 6,-7 3,-2 6,-3 10,-3 4,0 7,1 10,3 2,1 4,4 6,7 1,3 2,7 2,11 0,4 -1,8 -2,11 -2,3 -4,6 -6,7 -3,2 -6,3 -10,3zm1 -8c3,0 5,0 6,-1 2,-2 3,-3 3,-5 1,-2 1,-4 1,-7 0,-3 0,-5 -1,-7 0,-2 -1,-3 -3,-4 -1,-2 -3,-2 -5,-2 -3,0 -5,0 -6,2 -2,1 -3,2 -4,4 -1,2 -1,5 -1,7 0,2 0,5 1,7 1,2 2,3 3,4 2,2 4,2 6,2zm10 7l0 -28 -1 0 0 -25 9 0 0 53 -8 0zm67 0l0 -24c0,-3 -1,-5 -2,-7 -2,-1 -4,-2 -6,-2 -1,0 -3,0 -4,1 -1,1 -2,2 -2,3 -1,1 -1,3 -1,4l-4 -2c0,-3 0,-5 1,-7 2,-2 3,-4 6,-5 2,-1 4,-2 7,-2 4,0 8,1 10,4 2,3 4,6 4,10l0 27 -9 0zm-48 0l0 -40 7 0 0 12 2 0 0 28 -9 0zm24 0l0 -24c0,-3 -1,-5 -2,-7 -2,-1 -4,-2 -6,-2 -2,0 -4,1 -5,2 -2,2 -2,4 -2,6l-4 -2c0,-3 0,-5 1,-7 2,-2 3,-4 6,-5 2,-1 4,-2 7,-2 3,0 6,1 8,2 2,1 3,3 4,5 1,2 2,5 2,8l0 26 -9 0zm43 -46l0 -8 9 0 0 8 -9 0zm0 46l0 -40 9 0 0 40 -9 0zm48 0l0 -19c0,-1 0,-3 0,-4 -1,-2 -1,-3 -2,-5 0,-1 -1,-2 -2,-3 -2,-1 -3,-2 -6,-2 -1,0 -2,0 -3,1 -1,0 -2,1 -3,2 -1,1 -2,2 -2,3 -1,2 -1,4 -1,6l-5 -2c0,-3 0,-6 2,-9 1,-3 3,-5 6,-7 2,-1 5,-2 9,-2 3,0 6,0 7,1 2,1 4,3 5,4 1,2 2,3 3,5 0,2 1,3 1,5 0,1 0,3 0,4l0 22 -9 0zm-28 0l0 -40 8 0 0 12 1 0 0 28 -9 0z"/>
   <path class="fil3" d="M349 66c-3,0 -7,0 -10,-2 -3,-1 -6,-3 -8,-6 -2,-2 -3,-5 -4,-9l10 -1c0,3 2,5 4,7 3,2 6,3 9,3 2,0 4,0 5,-1 2,-1 3,-2 4,-3 2,-1 2,-2 2,-4 0,-1 0,-1 0,-2 -1,-1 -1,-1 -1,-2 -1,0 -2,-1 -2,-1 -1,0 -2,-1 -3,-1l-14 -4c-1,0 -2,-1 -4,-2 -1,0 -2,-1 -3,-2 -2,-1 -3,-2 -3,-4 -1,-1 -2,-3 -2,-6 0,-3 1,-6 3,-8 2,-3 4,-5 7,-6 3,-1 6,-1 10,-1 4,0 7,0 10,1 3,2 5,3 7,6 2,2 3,5 4,8l-10 2c0,-2 -1,-4 -2,-5 -1,-1 -2,-2 -4,-3 -2,-1 -3,-1 -5,-1 -2,0 -4,0 -5,1 -2,0 -3,1 -4,2 -1,1 -1,2 -1,4 0,1 0,2 1,3 1,1 2,1 3,2 1,0 2,1 4,1l9 3c1,0 3,1 4,1 2,1 4,2 5,3 2,1 3,2 4,4 1,2 1,4 1,7 0,2 0,5 -1,7 -1,2 -3,4 -5,5 -2,1 -4,2 -7,3 -2,1 -5,1 -8,1zm49 0c-4,0 -7,-1 -10,-3 -3,-1 -5,-4 -6,-7 -1,-3 -2,-7 -2,-11 0,-4 1,-8 2,-11 1,-3 3,-6 6,-7 2,-2 6,-3 9,-3 4,0 7,1 10,3 3,1 5,4 7,7 1,3 2,7 2,11 0,4 -1,8 -2,11 -2,3 -4,6 -7,7 -2,2 -6,3 -9,3zm-20 17l0 -58 8 0 0 28 1 0 0 30 -9 0zm18 -25c3,0 5,0 6,-2 2,-1 3,-2 3,-4 1,-2 2,-5 2,-7 0,-2 -1,-5 -2,-7 0,-2 -1,-3 -3,-4 -2,-2 -4,-2 -6,-2 -2,0 -4,0 -6,2 -1,1 -2,2 -3,4 0,2 -1,4 -1,7 0,3 1,5 1,7 1,2 2,3 4,5 1,1 3,1 5,1zm39 8c-3,0 -5,0 -7,-1 -2,-2 -3,-3 -5,-5 -1,-2 -1,-4 -1,-6 0,-2 0,-4 1,-5 1,-2 2,-3 3,-4 1,-1 3,-2 5,-3 2,0 4,-1 6,-1 2,-1 4,-1 7,-1 2,-1 5,-1 8,-2l-3 2c0,-3 -1,-5 -2,-6 -2,-1 -4,-2 -7,-2 -1,0 -3,1 -5,1 -2,1 -3,3 -3,5l-9 -3c1,-3 3,-6 6,-8 3,-2 7,-3 11,-3 4,0 7,0 10,2 2,1 4,3 6,5 0,2 1,3 1,5 0,1 0,3 0,4l0 25 -8 0 0 -9 2 2c-2,3 -4,5 -7,6 -2,2 -5,2 -9,2zm2 -7c2,0 4,0 5,-1 2,-1 3,-2 4,-3 1,-1 1,-2 2,-3 0,-1 0,-2 0,-3 0,-2 0,-3 0,-4l3 1c-3,0 -5,1 -7,1 -2,0 -3,0 -5,1 -1,0 -2,0 -3,1 -1,0 -2,1 -3,1 -1,1 -1,1 -2,2 0,0 0,1 0,2 0,1 0,2 0,3 1,0 2,1 3,1 1,1 2,1 3,1zm47 7c-4,0 -7,-1 -10,-3 -3,-1 -5,-4 -7,-7 -1,-3 -2,-7 -2,-11 0,-4 1,-8 2,-11 2,-3 4,-6 7,-7 3,-2 6,-3 10,-3 5,0 9,1 12,3 3,3 5,6 6,10l-9 2c0,-2 -2,-4 -3,-5 -2,-1 -4,-2 -6,-2 -2,0 -4,1 -5,2 -2,1 -3,3 -4,4 0,2 -1,5 -1,7 0,4 1,7 3,9 1,3 4,4 7,4 3,0 5,-1 6,-2 1,-1 2,-2 3,-5l9 3c-1,4 -3,7 -6,9 -3,2 -7,3 -12,3zm43 0c-4,0 -8,-1 -11,-2 -3,-2 -5,-5 -7,-8 -2,-3 -3,-6 -3,-11 0,-4 1,-8 3,-11 2,-3 4,-6 7,-7 3,-2 6,-3 10,-3 4,0 8,1 11,3 3,2 5,4 6,8 2,4 2,8 2,13l-9 0 0 -4c0,-4 -1,-7 -2,-9 -2,-2 -4,-3 -7,-3 -4,0 -7,1 -9,3 -1,2 -2,6 -2,10 0,4 1,7 2,9 2,3 5,4 8,4 2,0 4,-1 6,-2 2,-1 3,-2 4,-4l8 3c-1,3 -3,6 -7,8 -3,2 -6,3 -10,3zm-14 -18l0 -7 28 0 0 7 -28 0z"/>
  </g>
 </g>
</svg>
