<?xml version="1.0" encoding="UTF-8"?>
<!DOCTYPE svg PUBLIC "-//W3C//DTD SVG 1.1//EN" "http://www.w3.org/Graphics/SVG/1.1/DTD/svg11.dtd">
<!-- Creator: CorelDRAW X7 -->
<svg xmlns="http://www.w3.org/2000/svg" xml:space="preserve" width="1728px" height="1591px" version="1.1" style="shape-rendering:geometricPrecision; text-rendering:geometricPrecision; image-rendering:optimizeQuality; fill-rule:evenodd; clip-rule:evenodd"
viewBox="0 0 1728 1591"
 xmlns:xlink="http://www.w3.org/1999/xlink">
 <defs>
  <style type="text/css">
   <![CDATA[
    .fil0 {fill:#FBAF05}
    .fil1 {fill:#FF7E00}
   ]]>
  </style>
 </defs>
 <g id="Layer_x0020_1">
  <metadata id="CorelCorpID_0Corel-Layer"/>
  <g id="_1942028898016">
   <path class="fil0" d="M1318 726l2 -1 0 0 3 -1 0 0 2 0 0 0 3 -1 0 0 2 -1 0 0 3 0 0 0 2 -1 0 0 2 -1 0 0 3 0 0 -1 2 0 0 0 2 -1 0 0 2 -1 0 0 2 0 0 0 3 -1 0 0 2 -1 0 0 2 0 0 0 2 -1 0 0 2 -1 0 0 2 0 0 0 2 -1 0 0 2 -1 0 0 2 0 0 0 1 -1 0 0 2 -1 0 0 2 0 0 0 2 -1 0 0 2 -1 0 0 1 0 0 0 2 -1 0 0 2 -1 0 0 1 0 0 0 2 -1 0 0 1 -1 0 0 2 0 0 0 1 -1 0 0 2 -1 0 0 1 0 0 0 2 -1 0 0 1 -1 0 0 1 0 0 0 2 -1 0 0 1 -1 0 0 1 0 0 0 1 -1 0 0 1 -1 0 0 1 0 0 0 2 -1 0 0 1 0 0 -1 1 0 0 0 1 -1 0 0 1 0 0 0 1 -1 0 0 1 -1 -1 0 1 0 0 0 1 -1 0 0 1 -1 0 0 1 0 0 0 1 -1 0 0 0 0 0 0 1 -1 0 0 1 -1 0 0 0 0 0 0 1 -1 0 0 0 0 0 0 1 -1 0 0 0 -1 0 0 1 0 0 0 1 -1 0 0 0 -1 0 0 1 0 0 0 0 -1 0 0 0 -1 0 0 1 0 0 0 0 -1 0 0 1 -1 0 0 0 0 0 0 1 -1 0 0 0 -1 0 0 0 0 0 0 1 -1 0 0c0,-1 0,-2 1,-3l0 0c0,-1 0,-2 1,-3l0 0c0,-1 0,-2 1,-4l0 0c0,-1 0,-2 0,-3l0 0 0 -1 0 0 0 -1 0 0 1 -2 0 0 0 -2 0 0 0 0 0 0 -1 -2 0 0c0,-1 0,-2 0,-4l0 0 0 0 0 0 0 -1 0 0 0 -1 0 0 0 -1 0 0 -1 -1 0 0 0 -1 0 0 0 -1 0 0 0 -1 0 0 0 -1 0 0 -1 -1 0 0 0 -1 0 0 0 -1 0 0 0 -1 0 0 -1 0 0 0 0 -1 0 0 0 -1 -1 -1 0 0 0 -2 0 0 0 -1 -1 -1 0 -1 0 0 -1 -1 0 -1 0 0 0 -1 -1 0 0 -1 -1 -1 0 0 0 -1 -1 -1 0 0 -1 -2 0 -1 0 0 -2 -2 0 0c-1,-1 -2,-2 -3,-4l0 0 0 0c-1,-1 -2,-2 -3,-3l0 0 0 0 -1 -1 0 -1 -1 0 0 -1 -1 0 0 -1 -1 0 0 -1 -1 0 0 0 -1 -1 -1 0 0 -1 0 0 -1 -1c-7,-5 -15,-8 -25,-11 -2,0 -3,0 -5,-1l-1 0 0 0 -1 0 -1 0 0 0c-16,-3 -34,-2 -51,1l0 0 -1 0 -2 0 0 0 -2 0 -1 1 0 0 -2 0 0 0 -2 0 -1 1 -1 0 -1 0 -1 0 -1 0 -2 1 0 0 -2 0 0 0 -2 1 -1 0 0 0 -2 0 0 0 -2 1 -1 0 -1 0 -2 1 0 0 -2 0 0 0 -2 1 -1 0 -1 0 -1 1 -1 0 -1 0 -3 1 -2 1 -3 0 -2 1 -3 1 -2 0 -2 1 -3 1 -2 1 -2 0 -3 1 -2 1 -2 0 -2 1 -2 1 -3 1 0 0 -2 0 -2 1 -2 1 -2 1 0 0 -2 1 -2 0 0 0 -2 1 -2 1 -2 1 -2 0 -2 1 -2 1 0 0 -2 1 -1 1 -2 1 0 0 -2 0 0 0 -2 1 -2 1 0 0 -1 1 0 0 -2 1 0 0 -2 1 0 0 -1 0 0 0 -2 1 0 0 -2 1 -1 1 0 0 -2 1 0 0 -1 1 -2 1 -1 0 0 0 -2 1 0 0 -1 1 0 0 -2 1 0 0 -1 1 0 0 -1 1 0 0 -2 1 0 0 -1 1 0 0 -2 1 0 0 -1 1 0 0 -1 0 0 0 -1 1 0 0 -2 1 0 0 -1 1 0 0 -1 1 0 0 -1 1 0 0 -1 1 0 0 -1 1 0 0 -1 1 -1 0 -1 1 0 0 -1 1 0 0 -1 1 0 0 -1 1 0 0 -1 1 0 0 -1 1 0 0 -1 1 0 0 -1 1 0 0 -1 2 0 0 -1 1 0 0 -1 1 0 0 -1 1 0 1 -1 1 -1 1 -1 2 0 0 -1 1 0 0 -1 2 0 0 -1 1 -1 2 0 0 -1 1 -1 2 0 0 -1 2 -1 1 0 0 -1 2 0 0 -1 2 0 0 -1 2 0 0 -1 2 0 0 -1 1 -1 2 -1 2 0 0 -1 2 0 0 -1 2 -1 2 -1 3 0 0 -1 2 -1 2 -1 2 -1 2 -1 3 -1 2 -1 2 -1 3 0 0 -1 2 -1 3 -1 2 -1 3 -1 2 -1 3 0 2 -1 3 -1 3 -1 3 -1 2 -1 3 -1 3 -1 3 -1 3 -1 3 -1 3 -1 3 -1 3 0 3 -1 3 -1 3 -1 4 -1 1 0 1 0 2 -1 1 0 1 0 2 -1 1 0 0 0 1 -1 2 0 1 0 1 -1 2 0 1 0 1 0 0 -1 2 0 1 -1 1 0 1 0 2 -1 1 0 1 0 0 0 2 -1 1 0 1 -1 2 0 1 0 1 -1 1 0 0 0 2 0 1 -1 1 0 2 -1 1 0 1 0 1 0 0 -1 2 0 1 0 1 -1 1 0 2 -1 1 0 0 0 1 -1 3 0 1 0 0 -111 31c-13,3 -23,11 -29,23 -7,12 -8,24 -3,37l50 153 0 1 -1 1 -4 8 -1 2 0 1 -1 1 0 1 -1 0 0 1 -1 1 0 1 -2 4 -1 1 -1 2 -1 1 0 1 -1 1 0 1 -1 0 0 1 -1 1 0 1 -2 2 0 1 -1 1 0 1 -1 0 0 1 -1 1 0 1c-7,10 -13,20 -19,28 -2,-5 -3,-9 -5,-13l-190 -575 0 0 1 -2 1 -2 0 -1 1 -3 0 0 1 -3 0 -1 1 -2 1 -2 0 -1 1 -2 0 0 1 -3 1 -1 1 -2 0 -1 1 -2 0 -2 1 0 1 -3 0 0 1 -3 0 0 1 -2 0 -2 1 -1 1 -2 0 -1 1 -2 0 0 1 -2 0 -1 1 -2 0 -1 1 -1 1 -2 0 -1 1 -2 0 0 2 -6 1 -1 1 -2 0 0 1 -2 0 -1 1 -1 0 -2 0 0 1 -2 0 -1 1 -2 0 0 1 -2 1 0 0 -2 1 -1 0 -1 1 -1 0 0 1 -2 0 -1 2 -4 0 -1 1 -1 0 -1 1 -1 0 -1 1 -1 0 -1 1 -1 0 -1 0 0 1 -2 0 0 1 -1 0 -1 1 -1 0 -1 1 0 0 -2 1 -2 1 -1 1 -2 1 -2 2 -2 1 -2 1 -1 1 -2 1 -2 1 -2 1 -2 2 -1 1 -2 1 -2 1 -2 2 -1 1 -2 1 -2 0 0 1 -1 1 -1 0 0 1 -2 1 -1 0 0 3 -4 0 0 1 -1 1 -1 0 0 1 -1 1 -2 1 0 0 -1 1 -1 1 0 1 -1 0 -1 1 -1 0 0 1 -1 1 -1 0 0 1 -1 0 -1 1 -1 1 -1 0 0 0 0 2 -1 0 0 1 -1 0 -1 1 -1 1 -1 0 0 0 0 1 -1 1 0 1 -1 0 -1 1 -1 1 -1 0 0 0 0 1 -1 1 -1 0 0 1 0 1 -1 0 -1 1 -1 0 0 2 -1 0 -1 1 0 1 -1 0 -1 0 0 2 -1 1 -1 1 -1 0 0 0 0 2 -1 0 -1 0 0 1 -1 1 0 0 -1 2 -1 0 0 1 -1 0 -1 2 -1 0 0 1 -1 1 -1 0 0 0 0 2 -1 0 -1 1 0 1 -1 1 -1 1 -1 1 0 0 0 1 -1 1 -1 0 0 2 -1 0 0 1 -2 1 0 0 0 1 -1 1 -1 0 0 0 0 2 -1 0 0 4 -4 1 0 1 -1 1 0 1 -1 1 -1 0 0 2 -1c48,-35 115,-64 200,-88l2 0 1 0 2 -1 1 0 1 0 1 -1 0 0 3 -1 1 0 1 0 2 0 1 -1 1 0 1 0 1 -1 2 0 1 0 1 -1 1 0 2 0 1 -1 1 0 1 0 1 0 2 -1 1 0 1 0 1 -1 2 0 1 0 1 -1 1 0 1 0 2 0 1 -1 1 0 1 0 1 -1 2 0 1 0 0 0 2 -1 1 0 2 0 1 -1 0 0 2 0 1 0 2 -1 0 0 1 0 2 0 1 -1 1 0 0 0 2 0 2 -1 1 0 0 0 2 0 1 -1 2 0 1 0 0 0 1 -1 2 0 1 0 1 0 1 0 1 -1 2 0 1 0 0 0 3 -1 1 0 1 0 1 0 1 -1 2 0 1 0 0 0 5 -1 0 0 5 -1 5 -1 0 0 5 -1 5 -1 0 0 4 0 5 -1 0 0 5 -1 4 -1 0 0 5 0 5 -1 0 0 4 0 5 -1 0 0 4 0 5 -1 0 0 4 0 0 0 4 -1 0 0 4 0 0 0 5 0 4 -1 0 0 4 0 0 0 4 0 0 0 4 0 0 0 4 0 0 0 4 -1 4 0 4 0 0 0 4 0 0 0 4 0 0 0 4 0 0 0 3 0 4 0 0 1 4 0 3 0 0 0 4 0 4 0 0 0 3 1 4 0 3 0 0 0 3 1 4 0 3 1 0 0 3 0 3 1 4 0 3 1 3 0 3 1 3 1 3 0 3 1 3 1 3 1 3 1 3 0 3 1 3 1 3 1 3 1 3 1 3 1 3 1 3 1 0 0 3 2 3 1 3 1 3 1 3 1 2 2 3 1 0 0 3 1 3 2 3 1 3 2 0 0 3 1 0 0 2 2 0 0 3 1 0 0 3 2 3 1 3 2 0 0 2 2 3 1 0 0 3 2 0 0 3 2 2 2 0 0 3 1 3 2 0 0 2 2 3 2 0 0 3 2 0 0 2 2 0 0 3 2 0 0 3 2 2 2 0 0 3 2 0 0 3 2 0 0 2 2 0 0 3 2 0 0 3 3 0 0 2 2 0 0 3 2 0 0 2 2 0 0 3 3 0 0 2 2 0 0 3 3 0 0 2 2 3 2 0 0 2 3 0 0 3 2 0 0 2 3 0 0 3 3 0 0 2 2 0 0 3 3 2 2 0 0 3 3 0 0 2 3 0 0 2 3 0 0 3 2 0 0 2 3 3 3 2 3 2 3 2 2 3 3 2 3 2 3 0 0 2 3 2 3 0 0 3 3 2 3 0 0 2 3 2 4 2 3 0 0 2 3 2 3 2 3 2 3 2 4 0 0 2 3 2 3 0 0 2 4 0 0 2 3 2 3 0 0 2 4 0 0 2 3 2 4 2 3 0 0 2 4 0 0 1 3 2 4 0 0 2 3 2 4 0 0 2 4 0 0 1 3 2 4 0 0 2 4 0 0 1 4 0 0 2 3 0 0 2 4 1 4 2 4 2 4 0 0 1 4 0 0 2 4 0 0 1 4 0 0 2 4 1 4 2 4 0 0 1 4 0 0 2 4 0 0 1 4 2 4 0 0 1 4 0 0 2 4 1 5 0 0 2 5 0 0 1 4 0 0 1 5 2 4 0 0 1 5 0 0 1 4 0 0 2 5 0 0 1 4 0 0 1 5 0 0 1 4 0 0 1 4 2 5 1 4 1 5 0 0 1 4 1 4 0 0 1 5 0 0 1 4 0 0 0 4 0 0 2 9 1 4 1 4 0 5 0 0 1 4 1 4 0 4 1 5 0 0 1 8 0 4 1 4 0 4 1 4 0 0 0 4 0 0 0 5 1 4 0 0 0 4 0 0 0 4 0 0 0 4 1 4 0 8 0 4 0 0 0 4 0 0 0 3 0 0 0 4 0 4 0 0 0 4 0 4 0 4 0 0 -1 4 0 4 0 3 0 4 -1 4 0 4 0 4 -1 3 0 4 0 0 -1 4 0 3 -1 4 0 4 -1 3 -1 4 0 4 -1 3 -1 4 0 3 -1 4 -1 3 0 0 -1 3 -1 4 0 3 -1 3 -1 4 -1 3 -1 3 -1 3 0 0 -1 3 -1 4 0 0 -1 3 -1 3 -1 3 -2 3 -1 3 -1 3 0 0 -1 3 -1 2 -2 3 -1 3 0 0 -1 3 0 0 -1 3 -2 2 0 0 -1 3 0 0 -2 3 0 0 -1 2 -1 3 0 0 -2 2 -1 3 0 0 -2 2 0 0 -1 3 0 0 -2 2 0 0 -2 3 0 0 -1 2 0 0 -2 2 0 0 -2 3 0 0 -1 2 0 0 -2 2 0 0 -2 3 0 0 -1 2 0 0 -2 2 0 0 -2 2 0 0 -2 2 -2 2 0 0 -2 2 0 0 -2 2 0 0 -2 2 0 0 -1 2 0 0 -2 2 0 0 -2 2 0 0 -3 2 0 0 -2 2 0 0 -2 2 0 0 -2 1 0 0 -2 2 0 0 -2 2 0 0 -2 2 0 0 -3 1 0 0 -2 2 0 0 -2 2 0 0 -3 1 0 0 -2 2 0 0 -3 2 0 0 -3 2 0 0 -2 1 0 0 -3 2 0 0 -3 2 0 0 -3 1 0 0 -3 2 0 0 -3 2 0 0 -3 2 0 0 -3 1 0 0 -3 2 0 0 -3 2 0 0 -4 1 0 0 -3 2 0 0 -4 2 0 0 -3 1 0 0 -4 2 0 0 -3 2 0 0 -4 2 0 0 -4 1 0 0 -3 2 0 0 -4 2 0 0 -4 1 0 0 -4 2 -4 2 0 0 -4 1 0 0 -4 2 0 0 -5 2 0 0 -4 1 0 0 -4 2 0 0 -5 2 0 0 -4 1 0 0 -4 2 -5 2 0 0 -5 1 0 0 -4 2 0 0 -5 2 0 0 -5 1 0 0 -1 1 -2 0 -1 1 -1 0 -1 0 -1 1 -2 0 -1 1 0 0 -2 0 -1 1 -2 0 0 0 -1 1 -2 0 -1 1 -1 0 0 0 -1 0 -1 1 -2 0 -1 1 0 0 0 0 -2 0 -1 1 -2 0 0 0 0 0 -1 1 -2 0 -1 1 -1 0 -2 1 -2 0 -2 1 -1 0 -2 1 -1 0 -1 0 -3 1 -1 0 -1 1 -1 0 -1 0 -2 1 -2 0 0 0 -1 1 -2 0 -2 1 0 0 -1 0 -2 1 -2 0 -1 1 0 0 -2 0 -2 1 -1 0 0 0 -2 1 -2 0 -1 1 -1 0 -1 0 -2 1 -1 0 -2 1 0 0 -2 0 -2 1 -1 0 -1 0 -1 1 -2 0 -2 1 -1 0 0 0 -2 1 -2 0 -2 1 -63 17 -85 -257 -32 -94 119 -32 3 -1zm-840 637c-20,3 -38,5 -56,6l-2 0 -7 0 -1 0 -1 0 -4 0 -2 0 0 0 -2 0 -3 0 -2 0 0 0 -2 0 -1 0 -1 0 -2 0 -1 0 -1 0 -4 0 0 0 -2 0 0 0 -2 0 -1 0 -1 0 -2 0 0 0 -2 0 -1 0 -1 0 -2 0 -1 -1 -1 0 -2 0 0 0 -2 0 -1 0 -1 0 -1 0 -1 0 -1 0 -2 -1 0 0 -2 0 -1 0 -1 0 -2 0 0 0 -1 -1 -2 0 -3 0 -3 -1 -3 0 -3 -1 0 0 -3 -1 -3 0 -2 -1 -3 -1 0 0 -3 0 -3 -1 -3 -1 -3 -1 -3 -1 -3 -1 -3 -1 0 0 -2 -1 -3 -1 0 0 -3 -1 0 0 -3 -1 -3 -1 0 0 -3 -1 0 0 -3 -1 -3 -2 0 0 -2 -1 0 0 -3 -1 -3 -2 -3 -1 0 0 -3 -2 0 0 -3 -1 0 0 -3 -2 0 0 -2 -1 0 0 -3 -2 0 0 -3 -1 0 0 -3 -2 0 0 -3 -2 0 0 -3 -1 0 0 -2 -2 0 0 -3 -2 0 0 -3 -2 0 0 -3 -2 0 0 -3 -2 0 0 -3 -2 0 0 -2 -2 0 0 -3 -2 0 0 -3 -2 -3 -2 -3 -2 -3 -2 0 0 -2 -2 0 0 -3 -3 -3 -2 -3 -2 0 0 -3 -3 -2 -2 -3 -3 -3 -2 0 0 -3 -3 -3 -2 0 0 -3 -3 -2 -2 -3 -3 0 0 -3 -3 -3 -2 -3 -3 -2 -3 -3 -3c-2,-2 -4,-4 -6,-5l-2 -3 -3 -3 -3 -3 -2 -3 -3 -3 0 0 -2 -3 -3 -3 -3 -3 -2 -3 0 0 -3 -3 0 0 -2 -4 -3 -3 -2 -3 0 0 -2 -3 -3 -3 -2 -3 0 0 -3 -4 -2 -3 0 0 -2 -3 0 0 -3 -4 0 0 -2 -3 0 0 -2 -3 -2 -4 0 0 -2 -3 -3 -4 0 0 -2 -3 0 0 -2 -4 -2 -3 0 0 -2 -4 0 0 -2 -3 -4 -8 -2 -3 -2 -4 0 0 -2 -4 0 0 -2 -3 0 0 -2 -4 0 0 -2 -4 0 0 -2 -4 0 0 -2 -4 0 0 -2 -3 0 0 -2 -4 -1 -4 0 0 -2 -4 -2 -4 -2 -4 0 0 -1 -4 -2 -4 0 0 -2 -4 -1 -4 -2 -4 -2 -4 0 0 -3 -9 0 0 -1 -4 0 0 -2 -4 -1 -4 -2 -5 -1 -4 -2 -4 -1 -5 -2 -5 -1 -4 0 0 -2 -5 0 0 -1 -5 -2 -4 0 0 -1 -5 0 0 -1 -5 0 0 -1 -4 -3 -9 -1 -5 0 0 -1 -5 -1 -4 -1 -5 -1 -4 0 0 -1 -5 -1 -4 0 0c-1,-6 -2,-12 -3,-18l0 0 -1 -5 -1 -8 0 0c0,-3 -1,-6 -1,-9l0 0 -1 -5 0 -4 0 0 -1 -4 0 -5 0 0 0 -4c-1,-3 -1,-6 -1,-9l0 -4 0 0 -1 -4 0 0c0,-4 0,-9 0,-13l0 0 0 -4 0 -4 0 0c0,-4 0,-9 0,-13l0 0 0 -4 0 0 0 -4 0 0 1 -4 0 0 0 -4 0 -4 0 0 1 -4 0 -5 0 0 0 -4 0 0 1 -4 0 0 0 -4 0 0 1 -4 0 -4 0 0 1 -4 0 -4 0 0 1 -4 0 0 1 -4 0 0 1 -4 0 0 0 -3 0 0 1 -4 0 0 1 -4 0 0 1 -4 0 0 1 -4 0 0 1 -4 0 0 1 -4 0 0 1 -3 1 -4 0 0 1 -4 0 0 1 -3 0 0 2 -8 0 0 1 -3 0 0 3 -7 1 -4 0 0 1 -3 0 0 2 -3 1 -4 0 0 1 -3 2 -3 0 0 1 -4 0 0 2 -3 0 0 1 -3 2 -3 1 -3 2 -4 0 0 1 -3 0 0 2 -3 0 0 2 -3 0 0 1 -3 0 0 2 -3 0 0 2 -3 2 -2 0 0 1 -3 0 0c2,-2 3,-4 4,-6l0 0 2 -3 0 0c1,-2 3,-3 4,-5l2 -3 2 -2 0 0 2 -3 0 0 2 -3 0 0 2 -2 0 0 2 -3 0 0c2,-2 5,-5 7,-7l0 0 2 -2c2,-2 3,-4 5,-5l2 -2 0 0 2 -3 3 -2 2 -2 2 -2 3 -2 2 -3 0 0 3 -2 3 -2 0 0 2 -2 3 -2 2 -2 3 -2 3 -1 2 -2 3 -2 3 -2 3 -2 3 -2 3 -2 3 -1 3 -2 3 -2 3 -2 4 -2 3 -2 3 -1 0 0 3 -2 0 0 4 -2 0 0 3 -2 4 -2 3 -1 0 0 4 -2 0 0 3 -2 0 0 4 -2 4 -1 0 0 4 -2 0 0 3 -2 4 -2 4 -1 0 0 4 -2 4 -2 4 -2 4 -1 4 -2 4 -2 5 -1 2 -1 2 -1 0 0 2 -1 2 -1 0 0 0 0 2 0 2 -1 0 0 2 -1 2 -1 1 0 1 -1 2 0 2 -1 3 -1 1 0 0 0 1 -1 2 -1 4 -1 2 -1 0 0 3 -1 1 0 1 0 2 -1 2 -1 0 0 2 -1 3 -1 0 0 2 0 2 -1 1 0 1 -1 3 -1 0 0 2 -1 2 0 1 -1 2 0 2 -1 1 0 1 -1 3 0 1 -1 1 0 2 -1 2 0 1 -1 2 0 2 -1 1 0 2 -1 2 -1 0 0 3 0 2 -1 0 0 3 -1 2 -1 0 0 3 -1 2 0 1 0 2 -1 2 -1 1 0 2 -1 2 0 1 -1 2 0 2 -1 1 0 2 -1 2 0 2 -1 1 0 3 -1 1 0 1 0 3 -1 2 -1 0 0 3 -1 2 0 1 0 2 -1 3 -1 0 0 3 -1 2 0 105 -29 117 351 0 0 -195 53 0 0 -2 1 -1 0 0 0 -1 0 -1 1 -1 0 -7 2 -1 0 -3 1 0 0 -2 1 -2 0 -1 0 0 0 0 0 0 0 -1 1 0 0 0 0 0 0 0 0 -1 0 0 0 0 0 0 0 -1 0 0 0 -1 0 0 0 0 1 0 0 0 0 0 0 -1 0 0 0 0 0 0 0 -1 0 0 0 0 0 0 0 -1 0 0 0 0 0 0 0 0 1 0 0 -1 0 0 0 0 0 0 0 0 0 -1 0 0 0 0 0 0 0 0 0 0 0 -1 0 0 0 -1 1 0 0 0 0 -1 0 0 0 0 0 0 0 0 0 0 0 -1 0 0 0 0 0 0 0 -1 0 0 1 0 0 0 0 0 0 0 0 -1 0 -1 0 -1 0 -3 2 -1 0 0 0 0 0 -1 0 -1 1 0 0 -4 1 -1 0 -1 1 -1 0 0 0 0 0 -1 0 -1 1 -1 0 -1 0 0 0 0 0 -1 1 -1 0 -1 1 -1 0 0 0 -2 1 0 0 -2 0 0 0 -2 1 0 0 -3 1 -1 1 0 0 0 0 -1 0 -2 1 -2 1 -1 0 -1 0 -1 1 0 0 -2 1 -1 1 0 0 -2 0 0 0 -1 1 -2 1 -1 0 0 0 -2 1 -1 1 0 0 -1 1 -2 0 -1 1 -1 1 -2 0 -1 1 -1 1 -1 0 -1 1 -1 1 -1 1 -1 0 -1 1 -1 1 -1 0 -1 1 0 1 -1 0 -1 1 -1 1 0 0 -1 1 -1 1 0 0 -1 1 0 1 -1 1 -1 0 0 1 -1 1 0 1 -1 0 0 1 0 1 -1 1 0 0 -1 1 0 1 0 1 -1 1 0 1 0 0 -1 1 0 1 0 1 -1 1 0 1 0 1 0 0 0 1 -1 1 0 1 0 1 0 1 0 1 0 1 0 1 0 1 0 1 0 0 0 1 0 1 0 0 0 1 0 0 0 1 0 1 0 0 0 1 0 1 0 1 0 1 0 1 0 1 0 1 1 1 0 1 0 1 0 0 0 1 0 1 1 2 0 0 0 1 0 0 0 1 0 0 1 1 0 0 0 1 0 0 0 1 0 0 1 1 0 0 0 2 0 0 0 1 1 2 0 1 1 0 0 1 0 0 0 1 0 1 1 1 0 0 0 1 1 0 0 1 0 1 0 0 1 1 0 0 0 1 1 0 1 3 0 0c8,14 20,23 34,29l0 0 1 0 0 0 1 0 54 164c21,65 48,139 82,207zm396 -991l0 0zm819 175l0 0 0 0z"/>
   <path class="fil1" d="M804 373c-16,-41 -29,-67 -40,-78 -15,-16 -37,-20 -67,-12 -34,9 -52,26 -54,51 -2,25 9,74 34,147l223 675c24,71 44,115 60,134 16,19 41,24 72,16 31,-9 48,-25 50,-49 2,-24 -10,-76 -36,-156l-61 -183 196 -53 86 259c8,23 33,37 57,30 37,-10 74,-20 111,-30 17,-6 34,-11 52,-17 5,33 7,61 6,84 -2,69 -36,139 -101,208 -64,69 -155,120 -273,152 -122,33 -229,40 -322,22 -92,-19 -164,-60 -213,-124 -49,-64 -97,-167 -145,-309l-76 -232c3,-1 5,-2 8,-3 4,-1 8,-3 13,-4 14,-5 29,-10 43,-14 66,-18 132,-36 198,-54 13,-3 23,-11 29,-23 7,-12 8,-24 4,-37l-117 -351c-8,-24 -33,-37 -57,-31l-108 30c-8,2 -17,4 -25,7 -32,9 -63,19 -94,30 -7,3 -15,5 -23,8l-3 2c-7,-52 0,-106 22,-162 24,-59 65,-113 126,-159 60,-47 136,-83 226,-107 123,-34 232,-40 326,-19 94,22 164,61 211,118 12,16 24,33 36,54 -7,2 -15,3 -23,5 -21,5 -42,10 -63,16 -73,20 -152,49 -215,94l-2 2c-12,9 -24,18 -36,28 -12,11 -24,23 -35,35z"/>
  </g>
 </g>
</svg>
