<?xml version="1.0" encoding="UTF-8"?>
<!DOCTYPE svg PUBLIC "-//W3C//DTD SVG 1.1//EN" "http://www.w3.org/Graphics/SVG/1.1/DTD/svg11.dtd">
<!-- Creator: CorelDRAW X7 -->
<svg xmlns="http://www.w3.org/2000/svg" xml:space="preserve" width="525px" height="83px" version="1.1" style="shape-rendering:geometricPrecision; text-rendering:geometricPrecision; image-rendering:optimizeQuality; fill-rule:evenodd; clip-rule:evenodd"
viewBox="0 0 525 83"
 xmlns:xlink="http://www.w3.org/1999/xlink">
 <defs>
  <style type="text/css">
   <![CDATA[
    .fil0 {fill:#FBAF05}
    .fil1 {fill:#FF7E00}
    .fil2 {fill:#222222;fill-rule:nonzero}
    .fil3 {fill:#FF7E00;fill-rule:nonzero}
   ]]>
  </style>
 </defs>
 <g id="Layer_x0020_1">
  <metadata id="CorelCorpID_0Corel-Layer"/>
  <g id="_2595100932624">
   <g>
    <path class="fil0" d="M69 38l0 0 0 0 0 0 0 0 0 0 0 0 0 0 0 0 0 0 0 0 1 0 0 0 0 0 0 0 0 0 0 0 0 0 0 0 0 0 0 0 0 -1 0 0 0 0 0 0 0 0 0 0 0 0 0 0 1 0 0 0 0 0 0 0 0 0 0 0 0 0 0 0 0 0 0 0 0 0 0 0 0 0 0 0 0 0 0 0 0 0 0 0 0 0 0 0 1 0 0 0 0 0 0 0 0 0 0 0 0 0 0 0 0 0 0 0 0 0 0 0 0 0 0 0 0 0 0 0 0 0 0 0 0 0 0 0 0 0 0 0 1 0 0 0 0 0 0 0 0 0 0 0 0 -1 0 0 0 0 0 0 0 0 0 0 0 0 0 0 0 0 0 0 0 0 0 0 0 0 0 0 0 0 0 0 0 0 0 0 0 0 0 0 0 0 0 0 0 0 0 0 0 0 0 0 0 0 0 0 1 0 0 0 0 0 0 0 0 0 0 0 0 0 0 0 0 0 0 0 0 0 0 0 0 0 0 0 0 0 0 0 0 0 0 0 0 0 0 0 0 0 0 0 0 0 0 0 0 0 0 0 0 0 0 0 0 0 0 0 0 0 0 0 0 0 0 0 0 -1 0 0 0 0 0 0 0 0 0 0 0 0 0 0 0 0 0 0 0 0 0 0 0 0 0 0 0 0 0 0 0 0 0 0 0 0 0 0 0 0 0 0c0,0 0,0 0,0l0 0c0,0 0,0 0,0l0 0c0,0 0,0 0,0l0 0c1,0 1,0 1,-1l0 0 0 0 0 0 0 0 0 0 0 0 0 0 0 0 0 0 0 0 0 0 0 0 0 0c0,0 0,0 0,0l0 0 0 0 0 0 0 0 0 0 -1 0 0 0 0 0 0 0 0 0 0 0 0 0 0 0 0 0 0 0 0 -1 0 0 0 0 0 0 0 0 0 0 0 0 0 0 0 0 0 0 0 0 0 0 0 0 0 0 0 0 0 0 0 0 0 0 0 0 0 0 0 0 0 0 0 0 0 0 0 0 0 0 0 0 0 0 0 0 0 0 0 0 0 -1 0 0 0 0 0 0 0 0 0 0 0 0 0 0 0 0 0 0c0,0 0,0 0,0l0 0 0 0c0,0 0,0 0,0l0 0 0 0 0 0 -1 0 0 0 0 0 0 0 0 0 0 0 0 0 0 0 0 -1 0 0 0 0 0 0 0 0 0 0c0,0 -1,0 -1,0 0,0 0,0 0,0l0 0 0 0 -1 0 0 0 0 0c0,0 -1,0 -2,0l0 0 0 0 0 0 0 0 0 0 -1 0 0 0 0 0 0 0 0 0 0 0 0 0 0 0 0 0 0 0 0 0 0 0 0 0 0 0 0 0 0 0 0 0 -1 0 0 0 0 0 0 0 0 0 0 0 0 0 0 0 0 0 0 0 0 0 0 0 0 0 0 0 0 0 0 0 -1 0 0 0 0 0 0 0 0 0 0 0 0 1 0 0 -1 0 0 0 0 0 0 0 0 0 0 0 0 0 0 0 0 0 0 0 -1 0 0 0 0 0 0 0 0 0 0 0 0 0 0 0 0 0 0 0 0 0 0 0 0 0 -1 0 0 0 0 0 0 0 0 0 0 0 0 1 0 0 0 0 0 0 0 0 0 0 0 0 0 0 0 0 0 0 0 0 0 0 0 0 -1 0 0 0 0 0 0 0 0 0 0 0 0 0 0 0 0 0 0 0 0 0 0 0 0 0 0 0 0 0 0 0 0 0 0 0 0 0 0 0 0 0 0 0 0 0 -1 0 0 0 0 0 0 0 0 1 0 0 0 0 0 0 0 0 0 0 0 0 0 0 0 0 0 0 0 0 0 0 0 0 0 0 0 0 0 0 0 0 0 0 0 0 0 0 0 0 0 0 0 0 0 0 0 0 0 0 0 0 0 0 -1 0 0 0 0 0 0 0 0 0 0 0 0 0 0 0 0 0 0 0 0 1 0 0 0 0 0 0 0 0 0 0 0 0 0 0 0 0 0 0 0 0 0 0 0 0 0 0 0 0 0 0 0 0 0 0 0 0 0 0 0 1 0 0 0 0 -1 0 0 0 0 0 0 0 0 0 0 0 0 0 0 0 0 0 0 0 0 0 0 0 0 0 0 0 0 1 0 0 0 0 0 0 0 0 0 0 0 0 0 0 0 0 0 1 0 0 0 0 0 0 -1 0 0 0 0 0 0 0 0 0 0 1 0 0 0 0 0 0 0 0 0 0 0 0 0 1 0 0 0 0 0 0 0 0 0 0 0 1 0 0 -1 0 0 0 0 0 0 0 0 0 0 0 0 0 0 0 0 0 0 0 0 1 0 0 0 0 0 0 0 0 0 0 0 0 0 0 0 0 0 0 0 0 0 0 0 0 0 0 0 0 0 0 0 1 0 0 0 0 0 0 0 0 0 0 0 0 0 0 0 0 0 0 0 0 0 0 0 0 0 0 0 0 0 0 0 0 0 1 0 0 0 0 0 0 0 0 0 0 0 0 0 0 0 0 -6 2c-1,0 -1,0 -2,1 0,0 0,1 0,2l3 8 0 0 0 0 -1 0 0 0 0 0 0 0 0 0 0 0 0 1 0 0 0 0 0 0 0 0 0 0 0 0 0 0 0 0 0 0 0 0 0 0 0 0 0 0 0 1 0 0 0 0 0 0 0 0 0 0 0 0 0 0c-1,0 -1,1 -1,1 0,0 -1,0 -1,0l-10 -30 0 0 0 -1 1 0 0 0 0 0 0 0 0 0 0 0 0 0 0 0 0 0 0 0 0 0 0 -1 0 0 0 0 0 0 0 0 0 0 0 0 0 0 0 0 0 0 0 0 0 0 0 0 0 -1 0 0 0 0 0 0 0 0 0 0 0 0 0 0 1 0 0 0 0 0 0 0 0 0 0 0 0 -1 0 0 0 0 0 0 0 0 0 0 0 0 0 0 0 0 0 0 0 0 0 0 0 0 0 -1 0 0 0 0 0 0 0 0 0 0 0 0 0 0 0 0 0 0 0 0 0 0 0 0 1 0 0 0 0 -1 0 0 0 0 0 0 0 0 0 0 0 0 0 0 0 0 0 0 0 0 0 0 0 0 0 0 0 0 0 0 0 0 0 -1 0 0 0 0 0 0 0 0 0 0 0 0 1 0 0 0 0 0 0 0 0 -1 0 0 0 0 0 0 0 0 0 0 0 0 0 0 0 0 0 0 0 0 0 0 0 0 0 0 0 0 0 0 1 0 0 -1 0 0 0 0 0 0 0 0 0 0 0 0 0 0 0 0 0 0 0 0 0 0 0 0 0 0 0 0 0 0 0 0 0 0 0 0 0 0 0 0 0 0 0 0 0 0 0 0 0 0 0 0 0 0 0 -1 1 0 0 0 0 0 0 0 0 0 0 0 0 0 0 0 0 0 0 0 0 0 0 0 0 0 0 0 0 0 0 0 0 0 0 0 0 0 0 0 0 0 0 0 0 0 0 0 0 0 0 0 0 0 0 0 0 0 1 0 0 0 0 -1 0 0 0 0 0 0 0 0 0 0 0 0 0 0 0 0 0 0 0 0 0 0 0 0 0 0 0 0 0 0 0 0 0 0 0 0 0 0 0 0 0 0 0 0 0 0 1 0 0 0 0 0 0 0 0 0 0 0 0 -1 0 0 0 0 0 0 0 0 0 0 0 0 0 0c3,-2 6,-3 11,-4l0 0 0 0 0 0 0 0 0 -1 0 0 0 0 0 0 0 0 0 0 0 0 1 0 0 0 0 0 0 0 0 0 0 0 0 0 0 0 0 0 0 0 0 0 0 0 0 0 0 0 0 0 0 0 1 0 0 0 0 0 0 0 0 0 0 0 0 0 0 0 0 0 0 0 0 0 0 0 0 0 0 0 0 0 0 0 1 0 0 0 0 0 0 0 0 0 0 0 0 0 0 0 0 0 0 0 0 0 0 0 0 0 0 0 0 0 0 0 0 0 1 0 0 0 0 0 0 0 0 0 0 0 0 0 0 0 0 0 0 0 0 0 0 0 0 0 0 -1 0 0 1 0 0 0 0 0 0 0 0 0 0 0 0 0 0 0 0 0 1 0 0 0 0 0 0 0 0 0 0 0 1 0 0 0 0 0 0 0 0 0 0 0 1 0 0 0 0 0 0 0 0 0 0 0 0 0 0 0 1 0 0 0 0 0 0 0 0 0 0 0 0 0 1 0 0 0 0 0 0 0 0 0 0 0 0 0 0 0 0 0 0 0 1 0 0 0 0 0 0 0 0 0 0 0 0 0 0 0 1 0 0 0 0 0 0 0 0 0 0 0 0 0 0 0 1 0 0 0 0 0 0 0 0 0 0 0 0 0 0 0 1 0 0 0 0 0 0 0 0 0 0 0 1 0 0 0 0 0 0 0 0 0 0 0 0 0 1 0 0 0 0 0 0 0 0 0 0 0 1 1 0 0 0 0 0 0 0 0 0 0 0 0 0 0 1 0 0 0 0 0 0 0 0 0 0 0 0 0 1 0 0 0 0 0 0 0 0 1 0 0 0 0 0 0 0 0 0 0 0 0 1 0 0 0 0 0 0 0 0 0 0 0 0 0 0 0 0 0 0 0 0 0 1 1 0 0 0 0 0 0 0 0 0 0 0 0 0 0 0 0 0 0 0 0 0 0 1 0 0 0 0 0 0 0 0 0 0 1 0 0 0 0 0 0 0 0 0 0 0 0 0 0 1 0 0 0 0 0 0 0 0 0 0 0 0 0 0 0 0 0 0 0 0 1 0 0 0 0 0 0 0 0 1 0 0 0 0 0 0 0 0 0 0 0 0 0 0 0 0 1 0 0 0 0 0 0 0 0 0 0 0 0 1 0 0 0 0 0 0 0 0 0 0 0 0 1 0 0 0 0 0 0 0 0 1 0 0 0 0 1 0 0 0 0 0 0 0 0 0 0 0 0 0 0 0 0 0 1 1 0 0 0 0 0 0 0 0 0 0 0 0 1 0 0 0 0 0 0 0 0 0 0 0 0 1 0 0 0 0 0 0 1 0 0 0 0 0 0 0 0 0 0 0 0 0 0 0 0 0 1 0 0 0 0 0 0 0 0 1 0 0 0 0 0 0 1 0 0 0 0 0 0 0 0 0 0 0 0 0 0 0 0 0 1 0 0 0 0 0 0 0 0 0 0 1 0 0 0 0 1 0 0 0 0 0 0 0 0 0 0 0 0 0 0 0 1 0 0 0 0 0 0 0 0 0 0 0 0 0 1 0 0 0 0 0 0 0 0 1 0 0 0 0 1 0 0 0 0 0 0 0 0 0 0 0 0 0 0 0 0 0 1 0 0 0 0 0 0 0 0 0 0 0 0 0 1 0 0 0 0 0 0 0 0 0 1 0 0 0 0 0 0 1 0 0 0 0 0 0 0 0 1 0 0 0 0 0 0 0 0 0 1 0 0 0 0 0 0 0 0 0 1 0 0 0 0 0 0 0 0 0 0 0 1 0 0 0 0 0 0 0 0 0 0 0 0 0 1 0 0 0 0 0 0 0 0 0 1 0 0 0 0 0 0 0 0 0 0 0 0 0 0 0 0 0 1 0 0 0 0 0 0 0 0 0 0 0 1 0 0 0 0 0 0 0 0 0 1 0 0 0 0 0 0 0 0 0 0 0 1 0 0 0 0 0 0 0 0 0 1 0 0 0 0 0 0 0 0 0 0 -1 0 0 1 0 0 0 0 0 0 0 0 0 0 0 0 0 1 0 0 0 0 0 0 0 0 0 0 0 0 0 1 0 0 0 0 0 0 0 0 0 0 -1 0 0 0 0 0 0 0 0 1 0 0 0 0 0 0 0 0 0 0 0 0 0 0 0 0 0 0 0 0 0 1 0 0 0 0 0 0 0 0 0 0 0 0 0 0 0 0 0 0 -1 0 0 0 0 0 0 0 0 0 0 0 0 1 0 0 0 0 0 0 0 0 0 0 0 0 0 0 0 0 0 0 0 0 0 0 0 0 0 0 0 0 -1 0 0 0 0 1 0 0 0 0 0 0 0 0 0 0 0 0 0 0 0 0 0 0 0 0 0 0 0 0 0 0 0 0 0 0 -1 0 0 0 0 0 0 0 0 0 0 0 0 1 0 0 0 0 0 0 0 0 0 0 0 0 0 0 0 0 0 0 -1 0 1 0 -1 0 0 0 0 0 0 0 0 0 0 0 0 0 0 0 0 0 0 0 0 1 0 0 -1 0 0 0 0 0 0 0 0 0 0 0 0 0 0 0 0 0 0 0 0 0 0 0 -1 0 1 0 -1 0 0 0 0 0 0 0 0 0 0 0 0 1 0 0 0 0 0 0 -1 0 0 0 0 0 0 0 0 0 0 0 0 0 0 0 0 0 0 0 -1 0 0 0 0 0 0 0 0 0 0 0 0 0 0 1 0 0 -1 0 0 0 0 0 0 0 0 0 0 0 0 0 0 0 -1 0 0 0 0 0 0 0 0 0 0 0 0 0 -1 0 0 0 0 0 0 0 0 0 0 0 0 0 0 0 0 0 0 1 0 0 0 0 0 0 0 0 -1 0 0 0 0 0 0 0 0 0 0 0 0 0 0 0 0 0 0 0 0 0 0 0 0 0 0 0 0 0 0 0 0 0 0 0 0 0 0 0 -1 0 0 0 0 0 0 0 0 0 0 0 0 0 0 0 0 0 0 0 0 0 0 0 -1 0 0 0 0 0 0 0 0 0 0 0 0 0 0 0 0 0 0 0 0 0 0 0 0 0 0 0 0 1 0 0 -1 0 0 0 0 0 0 0 0 0 0 0 0 0 0 0 0 0 0 0 0 0 0 0 0 0 0 0 -1 0 0 0 0 0 0 0 0 0 0 0 0 0 0 0 0 0 0 0 -4 1 -4 -13 -2 -5 7 -2 0 0zm-44 33c-1,0 -2,0 -3,0l0 0 0 0 0 0 -1 0 0 0 0 0 0 0 0 0 0 0 0 0 0 0 0 0 0 0 0 0 -1 0 0 0 0 0 0 0 0 0 0 0 0 0 0 0 0 0 0 0 0 0 0 0 0 0 0 0 0 0 -1 0 0 0 0 0 0 0 0 0 0 0 0 0 0 0 0 0 0 0 0 0 0 0 0 0 0 0 0 0 0 0 -1 0 0 0 0 0 0 0 0 0 0 0 0 0 0 0 0 0 -1 0 0 0 0 0 0 0 0 0 0 0 0 0 0 0 -1 0 0 0 0 0 0 0 0 0 0 0 0 0 0 0 0 0 0 0 -1 -1 0 0 0 0 0 0 0 0 0 0 0 0 0 0 0 0 0 0 -1 0 0 0 0 0 0 0 0 0 0 0 0 0 0 0 0 0 0 0 0 0 0 0 -1 0 0 0 0 -1 0 0 0 0 0 0 0 0 0 0 0 0 0 0 0 0 0 0 0 0 0 0 -1 0 0 0 0 0 0 0 0 0 0 0 0 0 0 0 0 0 0 0 0 -1 0 0 0 0 -1 0 0 0 0 0 0 0 0 0 0 0 0 0 0 0 -1 -1 0 0 0 0 0 0 0 0 0 0 0 0 0 0 0 0 0 0 -1 0 0 -1 0 0 0 0 0 0 0 0 0 0 0 0 -1 0c0,-1 0,-1 0,-1l0 0 0 0 0 0 0 0 -1 0 0 0 0 -1 0 0 0 0 0 0 0 0 0 0 0 0 0 0 0 -1 -1 0 0 0 0 0 0 0 0 0 0 0 0 0 0 -1 0 0 0 0 0 0 0 0 0 0 -1 0 0 0 0 0 0 0 0 0 0 -1 0 0 0 0 0 0 0 0 0 0 0 0 0 0 0 -1 0 0 -1 0 0 0 0 0 0 -1 0 0 0 0 0 0 0 0 0 0 0 0 0 0 0 0 0 0 -1 0 0 0 0 -1 0 0 0 0 0 0 0 0 0 0 0 0 0 -1 0 0 0 0 0 0 0 0 0 0 0 0 0 -1 -1 0 0 0 0 0 0 0 0 -1 0 0 0 0 0 0 0 0 0 0 0 -1 0 0 0 0 0 0 0 0 -1 -1 0 0 0 0 0 0 0 0 0 0 0 0 0 -1 0 0 0 0 0 0 0 0 0 -1 0 0 0 0 0 0 0 0 0 -1 0 0 0 0 0 0 0 0 0 0c-1,-1 -1,-1 -1,-1l0 0 0 0 0 -1 0 0c0,0 0,0 0,0l0 0 0 -1 0 0 0 0 0 0 0 0 0 0 0 -1c0,0 0,0 0,0l0 0 0 0 0 0 0 0c0,-1 0,-1 0,-1l0 0 0 0 0 -1 0 0c0,0 0,0 0,0l0 0 0 0 0 0 0 -1 0 0 0 0 0 0 0 0 0 0 0 0 0 0 0 -1 0 0 0 0 0 0 0 0 0 0 0 0 0 0 0 -1 0 0 0 0 0 0 0 0 0 0 0 0 0 0 0 -1 0 0 0 0 0 0 0 0 0 0 0 0 0 0 1 0 0 0 0 -1 0 0 0 0 0 0 0 0 0 0 0 0 0 0 0 0 0 -1 0 0 0 0 0 0 0 0 0 0 0 0 0 0 0 0 0 0 0 -1 0 0 0 0 0 0 0 0 0 0 1 -1 0 0 0 0 0 0 0 0 0 0 0 0 0 0 0 0 0 0 0 -1 0 0 0 0 0 0 0 0 0 0 0 0 0 0 0 0 0 0 0 -1 0 0 1 0 0 0 0 0 0 0 0 0 0 0 0 0c0,0 0,0 0,0l0 0 0 -1 0 0c0,0 0,0 0,0l0 0 1 0 0 0 0 0 0 0 0 0 0 0 0 -1 0 0 0 0 0 0c0,0 0,0 0,0l0 0 0 0c1,0 1,0 1,0l0 -1 0 0 0 0 0 0 0 0 0 0 0 0 1 0 0 0 0 0 0 0 0 0 0 -1 0 0 0 0 0 0 1 0 0 0 0 0 0 0 0 0 0 0 0 -1 1 0 0 0 0 0 0 0 0 0 0 0 1 0 0 0 0 0 0 0 0 0 0 0 0 0 0 -1 0 0 0 0 1 0 0 0 0 0 0 0 0 0 0 0 0 0 0 0 0 0 1 0 0 0 0 0 0 0 0 -1 0 0 1 0 0 0 0 0 0 0 0 0 1 0 0 0 0 0 0 0 0 0 0 0 0 0 0 0 0 0 0 0 0 0 0 0 0 0 0 0 1 0 0 -1 0 0 0 0 0 0 0 0 0 0 0 0 0 0 0 0 0 0 1 0 0 0 0 0 0 0 0 0 0 0 0 0 0 0 0 0 0 0 0 0 0 0 1 0 0 0 0 0 0 0 0 0 0 0 0 0 0 0 0 0 0 0 0 0 0 0 1 0 0 -1 0 0 0 0 0 0 0 0 0 0 0 0 0 0 0 0 0 0 0 0 1 0 0 0 0 0 0 0 0 0 0 0 0 0 0 0 0 0 0 0 0 0 0 0 1 0 0 0 0 0 0 0 0 0 0 0 0 0 0 0 0 0 0 0 1 0 0 0 0 0 0 0 0 0 0 0 0 -1 0 0 0 0 0 0 0 0 6 -1 6 18 0 0 -10 3 0 0 0 0 0 0 0 0 0 0 0 0 0 0 -1 0 0 0 0 0 0 0 0 0 0 0 0 0 0 0 0 0 0 0 0 0 0 0 0 0 0 0 0 0 0 0 0 0 0 0 0 0 0 0 0 0 0 0 0 0 0 0 -1 0 0 0 0 0 0 0 0 0 0 0 0 0 0 0 0 0 0 0 0 0 0 0 0 0 0 0 0 0 0 0 0 0 0 0 0 0 0 0 0 0 0 0 0 0 0 0 0 0 0 0 0 0 0 0 0 0 0 0 0 0 0 0 0 0 0 0 0 0 0 0 0 0 0 0 0 0 0 0 0 0 0 0 0 0 0 0 0 0 0 0 0 0 0 0 0 0 0 0 0 1 0 0 0 0 0 0 0 0 0 0 0 0 -1 0 0 0 0 0 0 0 0 0 0 0 0 0 0 0 0 0 0 0 0 0 0 0 0 0 0 0 0 0 0 0 0 0 0 0 0 0 0 0 0 0 0 0 0 0 -1 0 0 0 0 0 0 0 0 0 0 0 0 0 0 0 0 0 0 0 0 0 0 0 0 0 0 0 0 0 0 0 0 0 0 0 -1 0 0 0 0 1 0 0 0 0 0 0 0 0 0 0 0 0 0 0 0 0 0 0 0 0 0 0 0 0 0 0 0 0 -1 0 0 0 0 0 0 0 0 0 0 0 0 0 0 0 0 0 0 0 0 0 0 0 0 0 0 0 0 0 0 1 0 0 0 0 0 0 0 0 0 0 0 0 0 0 0 0 0 0 0 0 0 0 0 0 0 0 0 0 0 0 0 0 0 0 -1 0 0 0 0 0 0 0 0 0 0 1 0 0 0 0 0 0 0 0 0 0 0 0 0 0 0 0 0 0 0 0 0 0 0 0 0 0 0 0 0 0 0 0 0 0 0 0 0 0 0 0 0 0 0 0 0 0 0 1 0 0 0 0 0 0 0 0 0 0 0 0 0 0 0 0 0 0 0 0 0 0 0 0 1 0 0 0 0 0 0 0 0 0 0 0 0 0 0 0 0 0 0 0 0 0 0 0 0 0 0 1 0 0 0 0 0 0 0 0 0 0 0 0 0 0 0 0 0 0 0 0 0 0 0 0 0 0 0 0 0 0 0 0 0 0 0 0 0 0c0,1 1,1 2,2l0 0 0 0 0 0 0 0 3 8c1,4 2,8 4,11zm21 -52l0 0zm42 10l0 0 0 0z"/>
    <path class="fil1" d="M42 19c-1,-2 -2,-3 -2,-4 -1,0 -2,-1 -4,0 -1,0 -2,1 -2,2 -1,2 0,4 1,8l12 35c1,4 2,6 3,7 1,1 2,2 4,1 1,0 2,-1 2,-2 1,-2 0,-4 -1,-9l-4 -9 11 -3 4 14c1,1 2,2 3,1 2,0 4,-1 6,-1 1,-1 2,-1 3,-1 0,1 0,3 0,4 0,4 -2,7 -5,11 -4,4 -8,6 -15,8 -6,2 -12,2 -16,1 -5,-1 -9,-3 -12,-6 -2,-4 -5,-9 -7,-17l-4 -12c0,0 0,0 0,0 1,0 1,0 1,0 1,0 2,0 2,-1 4,-1 7,-2 11,-3 0,0 1,0 1,-1 0,0 1,-1 0,-2l-6 -18c0,-1 -1,-2 -3,-2l-5 2c-1,0 -1,0 -2,0 -1,1 -3,1 -5,2 0,0 0,0 -1,0l0 0c0,-2 0,-5 1,-8 1,-3 4,-6 7,-8 3,-3 7,-5 12,-6 6,-2 12,-2 17,-1 4,1 8,3 11,6 0,1 1,2 1,3 0,0 0,0 -1,0 -1,1 -2,1 -3,1 -4,1 -8,3 -11,5l0 0c-1,1 -2,1 -2,2 -1,0 -1,1 -2,1z"/>
   </g>
   <path class="fil2" d="M120 66c-4,0 -8,0 -11,-2 -3,-1 -5,-3 -7,-6 -2,-2 -4,-5 -4,-9l9 -1c1,3 2,6 5,7 2,2 5,3 8,3 2,0 4,0 6,-1 1,-1 3,-1 4,-3 1,-1 1,-2 1,-4 0,-1 0,-1 0,-2 0,0 0,-1 -1,-2 0,0 -1,0 -2,-1 -1,0 -1,-1 -2,-1l-14 -4c-1,0 -3,-1 -4,-1 -1,-1 -3,-2 -4,-3 -1,-1 -2,-2 -3,-4 -1,-1 -1,-3 -1,-6 0,-3 1,-6 2,-8 2,-3 5,-5 7,-6 3,-1 7,-1 10,-1 4,0 7,0 10,1 3,2 5,4 7,6 2,2 4,5 4,8l-9 2c-1,-2 -1,-4 -2,-5 -2,-1 -3,-2 -5,-3 -1,-1 -3,-1 -5,-1 -2,0 -3,0 -5,1 -1,0 -2,1 -3,2 -1,1 -2,2 -2,4 0,1 1,2 1,3 1,1 2,2 3,2 2,0 3,1 4,1l10 3c1,0 2,1 4,1 2,1 3,2 5,3 1,1 2,2 3,4 1,2 2,4 2,7 0,2 -1,5 -2,7 -1,2 -3,4 -5,5 -1,2 -4,3 -6,3 -3,1 -5,1 -8,1zm47 0c-4,0 -7,-1 -11,-2 -3,-2 -5,-5 -7,-8 -1,-3 -2,-6 -2,-10 0,-5 1,-9 2,-12 2,-3 4,-6 7,-7 3,-2 7,-3 11,-3 4,0 7,1 10,3 3,2 5,5 7,8 1,4 2,8 1,13l-9 0 0 -4c0,-4 0,-7 -2,-9 -1,-2 -4,-3 -7,-3 -4,0 -6,1 -8,3 -2,2 -3,6 -3,10 0,4 1,7 3,10 2,2 4,3 8,3 2,0 4,-1 5,-2 2,-1 3,-2 4,-4l9 3c-2,3 -4,6 -7,8 -3,2 -7,3 -11,3zm-14 -18l0 -7 28 0 0 7 -28 0zm41 17l0 -54 9 0 0 54 -9 0zm21 0l0 -54 9 0 0 54 -9 0zm39 1c-4,0 -8,-1 -11,-2 -3,-2 -6,-5 -7,-8 -2,-3 -3,-6 -3,-10 0,-5 1,-9 3,-12 1,-3 4,-6 7,-7 3,-2 6,-3 10,-3 4,0 8,1 11,3 3,2 5,5 6,8 2,4 2,8 2,13l-9 0 0 -4c0,-4 -1,-7 -2,-9 -2,-2 -4,-3 -7,-3 -4,0 -7,1 -9,3 -1,2 -2,6 -2,10 0,4 1,7 2,10 2,2 5,3 8,3 2,0 4,-1 6,-2 1,-1 3,-2 4,-4l8 3c-1,3 -4,6 -7,8 -3,2 -6,3 -10,3zm-14 -18l0 -7 27 0 0 7 -27 0zm40 17l0 -40 8 0 0 10 -1 -1c1,-2 1,-3 2,-4 1,-1 2,-2 3,-3 1,-1 2,-1 3,-1 2,-1 3,-1 4,-1 1,0 3,0 4,0l0 8c-1,0 -3,0 -4,0 -2,0 -3,1 -5,1 -1,1 -2,2 -3,3 0,1 -1,2 -1,3 -1,2 -1,3 -1,5l0 20 -9 0z"/>
   <path class="fil3" d="M329 66c-4,0 -7,0 -10,-2 -4,-1 -6,-3 -8,-6 -2,-2 -4,-5 -4,-9l9 -1c1,3 3,6 5,7 3,2 5,3 9,3 2,0 3,0 5,-1 2,-1 3,-1 4,-3 1,-1 2,-2 2,-4 0,-1 0,-1 -1,-2 0,0 0,-1 -1,-2 0,0 -1,0 -2,-1 0,0 -1,-1 -2,-1l-14 -4c-1,0 -3,-1 -4,-1 -1,-1 -3,-2 -4,-3 -1,-1 -2,-2 -3,-4 -1,-1 -1,-3 -1,-6 0,-3 1,-6 3,-8 1,-3 4,-5 7,-6 3,-1 6,-1 10,-1 3,0 7,0 9,1 3,2 6,4 8,6 2,2 3,5 4,8l-10 2c0,-2 -1,-4 -2,-5 -1,-1 -3,-2 -4,-3 -2,-1 -4,-1 -6,-1 -1,0 -3,0 -4,1 -2,0 -3,1 -4,2 -1,1 -2,2 -2,4 0,1 1,2 2,3 0,1 1,2 3,2 1,0 2,1 3,1l10 3c1,0 3,1 4,1 2,1 3,2 5,3 1,1 3,2 4,4 1,2 1,4 1,7 0,2 0,5 -2,7 -1,2 -2,4 -4,5 -2,2 -4,3 -7,3 -3,1 -5,1 -8,1zm48 0c-3,0 -7,-1 -9,-2 -3,-2 -5,-5 -6,-8 -2,-3 -2,-7 -2,-11 0,-4 0,-8 2,-11 1,-3 3,-5 6,-7 2,-2 5,-3 9,-3 4,0 7,1 10,3 3,2 5,4 6,7 2,3 3,7 3,11 0,4 -1,8 -2,11 -2,3 -4,6 -7,8 -3,1 -6,2 -10,2zm-19 17l0 -58 8 0 0 28 1 0 0 30 -9 0zm18 -25c2,0 4,0 6,-1 1,-2 2,-3 3,-5 1,-2 1,-4 1,-7 0,-2 0,-5 -1,-7 -1,-2 -2,-3 -3,-4 -2,-1 -4,-2 -6,-2 -2,0 -4,1 -6,2 -1,1 -2,2 -3,4 -1,2 -1,4 -1,7 0,3 0,5 1,7 1,2 2,4 3,5 2,1 4,1 6,1zm39 8c-3,0 -5,0 -7,-1 -2,-1 -4,-3 -5,-5 -1,-2 -1,-4 -1,-6 0,-2 0,-3 1,-5 0,-2 1,-3 3,-4 1,-1 3,-2 5,-3 1,0 3,-1 6,-1 2,-1 4,-1 7,-1 2,-1 5,-1 8,-2l-4 2c0,-3 0,-5 -1,-6 -2,-1 -4,-2 -7,-2 -2,0 -3,1 -5,1 -2,1 -3,3 -4,5l-8 -3c1,-3 3,-6 6,-8 3,-2 6,-3 11,-3 4,0 7,1 10,2 2,1 4,3 6,5 0,2 1,3 1,5 0,1 0,3 0,5l0 24 -8 0 0 -9 2 2c-2,3 -4,5 -7,6 -2,2 -5,2 -9,2zm2 -7c2,0 4,0 5,-1 2,-1 3,-2 4,-3 0,-1 1,-2 1,-2 1,-2 1,-3 1,-4 0,-2 0,-3 0,-4l3 1c-3,0 -5,1 -7,1 -2,0 -4,1 -5,1 -1,0 -3,0 -4,1 -1,0 -2,1 -2,1 -1,1 -2,1 -2,2 0,0 0,1 0,2 0,1 0,2 0,3 1,0 1,1 2,2 1,0 3,0 4,0zm47 7c-4,0 -7,-1 -10,-2 -3,-2 -6,-5 -7,-8 -2,-3 -2,-7 -2,-11 0,-4 0,-8 2,-11 2,-3 4,-6 7,-7 3,-2 6,-3 10,-3 5,0 9,1 12,3 3,3 5,6 6,10l-9 2c-1,-2 -2,-4 -3,-5 -2,-1 -4,-2 -6,-2 -2,0 -4,1 -6,2 -1,1 -2,3 -3,5 -1,1 -1,4 -1,6 0,4 1,7 3,9 1,3 4,4 7,4 3,0 4,-1 6,-2 1,-1 2,-2 3,-4l9 2c-1,4 -3,7 -6,9 -3,2 -7,3 -12,3zm43 0c-4,0 -8,-1 -11,-2 -3,-2 -5,-5 -7,-8 -2,-3 -3,-6 -3,-10 0,-5 1,-9 3,-12 1,-3 4,-6 7,-7 3,-2 6,-3 10,-3 4,0 8,1 11,3 3,2 5,5 6,8 2,4 2,8 2,13l-9 0 0 -4c0,-4 -1,-7 -2,-9 -2,-2 -4,-3 -7,-3 -4,0 -7,1 -9,3 -1,2 -2,6 -2,10 0,4 1,7 2,10 2,2 5,3 8,3 2,0 4,-1 6,-2 2,-1 3,-2 4,-4l8 3c-1,3 -3,6 -7,8 -3,2 -6,3 -10,3zm-14 -18l0 -7 28 0 0 7 -28 0z"/>
  </g>
 </g>
</svg>
