<?xml version="1.0" encoding="UTF-8"?>
<!DOCTYPE svg PUBLIC "-//W3C//DTD SVG 1.1//EN" "http://www.w3.org/Graphics/SVG/1.1/DTD/svg11.dtd">
<!-- Creator: CorelDRAW X7 -->
<svg xmlns="http://www.w3.org/2000/svg" xml:space="preserve" width="710px" height="117px" version="1.1" style="shape-rendering:geometricPrecision; text-rendering:geometricPrecision; image-rendering:optimizeQuality; fill-rule:evenodd; clip-rule:evenodd"
viewBox="0 0 710 117"
 xmlns:xlink="http://www.w3.org/1999/xlink">
 <defs>
  <style type="text/css">
   <![CDATA[
    .fil3 {fill:#8C8C8D;fill-rule:nonzero}
    .fil0 {fill:#9ACDED;fill-rule:nonzero}
    .fil1 {fill:#24ACDF;fill-rule:nonzero}
    .fil2 {fill:#367FC2;fill-rule:nonzero}
   ]]>
  </style>
 </defs>
 <g id="Logo">
  <metadata id="CorelCorpID_0Corel-Layer"/>
  <g id="_2122359453280">
   <g>
    <g>
     <path class="fil0" d="M8 94c-5,0 -8,-3 -8,-7l0 -57c0,-4 3,-7 8,-7 4,0 7,3 7,7l0 57c0,4 -3,7 -7,7z"/>
    </g>
    <g>
     <path class="fil1" d="M101 94c-5,0 -8,-3 -8,-7l0 -57c0,-4 3,-7 8,-7 4,0 7,3 7,7l0 57c0,4 -3,7 -7,7z"/>
    </g>
    <g>
     <path class="fil2" d="M54 117c-4,0 -8,-3 -8,-8l0 -101c0,-4 4,-8 8,-8 4,0 8,4 8,8l0 101c0,5 -4,8 -8,8z"/>
    </g>
   </g>
   <g>
    <path class="fil3" d="M296 28c0,-3 2,-5 5,-5 3,0 5,2 5,5l0 60c0,3 -2,5 -5,5 -3,0 -5,-2 -5,-5l0 -60z"/>
    <path class="fil3" d="M334 58l0 1c0,16 11,26 24,26 13,0 25,-11 25,-26l0 -1c0,-16 -12,-26 -25,-26 -13,0 -24,10 -24,26zm59 30l0 0c0,3 -2,5 -5,5 -3,0 -5,-2 -5,-5l0 -7c-6,8 -14,13 -27,13 -16,0 -33,-13 -33,-35l0 -1c0,-22 17,-35 33,-35 13,0 21,5 27,12l0 -30c0,-3 2,-5 5,-5 3,0 5,2 5,5l0 83z"/>
    <path class="fil3" d="M659 86c-1,-1 -2,-2 -2,-4 0,-3 2,-5 5,-5 1,0 2,1 2,1 7,5 15,8 22,8 8,0 14,-5 14,-11l0 -1c0,-7 -8,-9 -17,-12 -11,-3 -23,-7 -23,-19l0 0c0,-12 10,-20 24,-20 7,0 15,2 22,6 1,0 2,2 2,4 0,2 -2,4 -4,4 -1,0 -2,0 -3,0 -5,-4 -12,-6 -17,-6 -9,0 -14,5 -14,10l0 1c0,6 9,9 18,12 11,3 22,7 22,19l0 1c0,13 -11,20 -24,20 -10,0 -20,-3 -27,-8z"/>
    <path class="fil3" d="M642 52c0,-16 -13,-29 -30,-29 -16,0 -30,13 -30,30l0 35c0,3 3,5 6,5 3,0 5,-2 5,-5l0 -16 0 -20c0,-11 9,-20 19,-20 11,0 20,9 20,20l0 20 0 16c0,3 2,5 5,5 3,0 5,-2 5,-5 0,0 1,-33 0,-36z"/>
    <path class="fil3" d="M564 51l0 0c-1,-15 -14,-28 -30,-28l-4 0c-3,0 -5,3 -5,5 0,3 2,5 5,5l4 0c11,0 20,9 20,19l0 1c-6,-1 -12,-3 -21,-3 -17,0 -29,8 -29,23l0 0c0,14 12,21 25,21 12,0 21,-6 25,-13l0 8c0,2 3,4 5,4 3,0 5,-2 5,-4l0 -38zm-33 34l0 0c-9,0 -17,-4 -17,-13l0 0c0,-8 7,-14 20,-14 9,0 20,3 20,3l0 0c0,13 -11,24 -23,24z"/>
    <path class="fil3" d="M502 28c0,-2 -2,-5 -5,-5l-3 0c0,0 0,0 0,0 -17,0 -30,14 -30,30l0 35c0,3 2,5 5,5 3,0 5,-2 5,-5l0 -16 0 -20c0,-10 9,-19 20,-19 0,0 0,0 0,0l0 0 3 0c3,0 5,-2 5,-5z"/>
    <path class="fil3" d="M447 28c0,-2 -2,-4 -5,-4l-18 0 0 -19c0,-2 -2,-5 -5,-5 -3,0 -5,2 -5,5l0 70c0,14 8,19 19,19 4,0 8,-1 10,-2 2,0 3,-2 3,-4 0,-2 -2,-4 -4,-4 -1,0 -3,1 -6,1 -7,0 -12,-3 -12,-12l0 -40 18 0c3,0 5,-2 5,-5z"/>
    <path class="fil3" d="M246 23c-10,0 -18,4 -24,12 -5,-8 -13,-12 -23,-12 -16,0 -29,12 -29,28l0 37c0,3 2,5 5,5 3,0 5,-2 5,-5l0 -38c0,-10 9,-18 19,-18 10,0 18,8 18,18l0 34 0 0c0,0 0,0 0,0 0,3 3,5 5,5 3,0 6,-2 6,-5l0 -34c0,-10 8,-18 18,-18 10,0 18,8 18,18l0 38c0,3 3,5 5,5 3,0 6,-2 6,-5l0 -37c0,-16 -14,-28 -29,-28z"/>
   </g>
  </g>
 </g>
</svg>
